<svg width="140" height="44" xmlns="http://www.w3.org/2000/svg">
 <defs>
  <path d="m0,0l15.027,0l0,24l-15.027,0l0,-24z" id="a"/>
  <path d="m0,0.016l27,0l0,32.984l-27,0l0,-32.984z" id="c"/>
  <path d="m0,0l27,0l0,33.797l-27,0l0,-33.797z" id="e"/>
 </defs>
 <g>
  <title>background</title>
  <rect fill="none" id="canvas_background" height="46" width="142" y="-1" x="-1"/>
 </g>
 <g>
  <title>Layer 1</title>
  <!-- Generator: Sketch 50.2 (55047) - http://www.bohemiancoding.com/sketch -->
  <desc>Created with Sketch.</desc>

  <metadata id="svg_79">image/svg+xml</metadata>
  <defs>
   <style type="text/css"/>
  </defs>
  <!-- Generator: Sketch 46.2 (44496) - http://www.bohemiancoding.com/sketch -->
  <desc>Created with Sketch.</desc>

  <defs>
   <path id="svg_125" d="m0,0l15.027,0l0,24l-15.027,0l0,-24z"/>
   <path id="svg_124" d="m0,0.016l27,0l0,32.984l-27,0l0,-32.984z"/>
   <path id="svg_123" d="m0,0l27,0l0,33.797l-27,0l0,-33.797z"/>
  </defs>
  <defs>
   <style>.cls-1{fill:#171717;}.cls-2{fill:#df0029;}.cls-3{fill:#fdfcfc;}</style>
  </defs>
  <style type="text/css">.st0{fill:#201600;}
	.st1{fill:#45649F;}
	.st2{fill:#FFFFFF;}</style>
  <g id="svg_166">
   <g transform="matrix(0.819443, 0, 0, 0.819443, -20.8514, -9.72051)" id="svg_156">
    <path id="svg_157" d="m49.6427,53.03185c-7.564,0 -12.772,-6.324 -12.772,-13.578c0,-8.68 7.564,-15.066 15.934,-15.066c1.985,0 6.759,0.248 6.759,3.1c0,1.364 -1.488,2.853 -2.914,2.853c-2.17,0 -4.402,-4.031 -7.502,-4.031c-4.96,0 -7.316,5.766 -7.316,9.983c0,7.998 5.456,13.082 11.594,13.082c2.362,0 4.083,-0.804 5.957,-2.112c0.372,0.227 0.759,0.43 1.16,0.608l0.013,0.015c-2.791,3.162 -6.635,5.146 -10.913,5.146z" class="st0"/>
    <path id="svg_158" d="m74.1997,27.73485l0,-0.62l7.379,-2.728l0.681,0.248l-0.496,4.526c3.535,-2.604 6.945,-4.774 10.914,-4.774c7.439,0 7.81,6.138 7.81,9.796l0,11.036c0,5.084 0.249,5.58 4.838,6.262l0,0.93l-14.448,0l0,-0.93c4.588,-0.682 4.775,-1.426 4.837,-6.262l0,-7.13c0,-4.34 0.185,-10.478 -7.378,-10.478c-2.541,0 -4.279,0.806 -6.324,2.666l0,14.942c0,5.084 0.247,5.58 4.835,6.262l0,0.93l-14.446,0l0,-0.93c4.588,-0.682 4.774,-1.426 4.836,-6.262l0,-11.842c-0.001,-2.604 0.061,-3.41 -3.038,-5.642z" class="st0"/>
    <path id="svg_159" d="m121.0107,31.82685l-11.904,0.496c0.682,-3.1 2.79,-6.572 6.326,-6.572c3.284,0 5.021,3.225 5.578,6.076zm-12.339,4.775l0.249,-3.1l17.98,0c-0.247,-5.581 -3.968,-9.114 -9.548,-9.114c-8.37,0 -13.95,6.882 -13.95,14.881c0,7.44 5.332,13.764 13.02,13.764c4.837,0 9.054,-3.162 11.408,-7.192l-0.93,-0.682c-1.86,2.48 -4.092,3.906 -7.316,3.906c-7.005,-0.001 -11.409,-6.015 -10.913,-12.463z" class="st0"/>
    <path id="svg_160" d="m138.0617,53.03185l-8.929,-22.135c-1.115,-2.666 -1.798,-4.774 -5.147,-4.96l0,-0.93l13.083,0l0,0.93c-4.588,0.124 -3.783,2.108 -2.666,5.022l5.953,15.19l5.827,-13.764c-1.922,-4.961 -1.985,-5.891 -5.643,-6.449l0,-0.93l13.269,0l0,0.93c-4.651,0.186 -4.03,2.046 -3.287,4.092l6.077,16.12c2.481,-5.517 6.82,-15.066 6.82,-17.98c0,-2.046 -1.922,-2.046 -3.472,-2.232l0,-0.93l10.478,0l0,0.93c-3.535,0.248 -4.466,2.728 -5.767,5.518l-9.672,21.576l-0.868,0l-7.377,-18.848l-7.75,18.848l-0.929,0l0,0.002z" class="st0"/>
    <path id="svg_161" d="m181.8947,32.19885c-0.868,-2.852 -2.232,-6.324 -5.766,-6.324c-2.543,0 -4.094,1.86 -4.094,4.34c0,6.386 12.834,6.2 12.834,14.199c0,5.518 -5.269,8.618 -10.291,8.618c-2.728,0 -5.394,-0.744 -7.565,-2.294l-0.495,-6.883l1.425,-0.247c0.869,3.782 2.977,7.812 7.378,7.812c2.853,0 4.775,-2.107 4.775,-4.897c0,-7.068 -12.834,-5.643 -12.834,-14.509c0,-4.836 4.526,-7.626 8.927,-7.626c2.419,0 4.9,0.682 6.883,2.046l0.186,5.518l-1.363,0.247z" class="st0"/>
    <g id="svg_162">
     <circle id="svg_163" r="7.74999" cy="38.70985" cx="64.5967" class="st1"/>
    </g>
    <g id="svg_164">
     <circle id="svg_165" r="3.214" cy="35.49585" cx="61.3827" class="st2"/>
    </g>
   </g>
  </g>
 </g>
</svg>