<svg xmlns="http://www.w3.org/2000/svg" viewBox="0 0 1920 1080"><defs><style>.b{fill:#01d9f0}.c{fill:#fffdff}.d{fill:#fff}</style></defs><path fill="#30b0c8" d="M0 0h1920v1080H0z"/><rect class="b" x="513.9" y="226.7" width="894.2" height="178.7" rx="89.3"/><circle class="c" cx="1318.7" cy="316.1" r="84.8"/><path class="b" d="M1318.7 364a5 5 0 01-5-5v-86a5 5 0 0110 0v86a5 5 0 01-5 5z"/><path class="b" d="M1318.7 364a5 5 0 01-3.5-8.5l34-34a5 5 0 017 7l-34 34a5 5 0 01-3.5 1.5z"/><path class="b" d="M1318.7 364a5 5 0 01-3.5-1.4l-34-34a5 5 0 017-7.1l34 34a5 5 0 01-3.5 8.5z"/><path class="d" d="M1009.1 716.7l-48.3-12-48.2 12s-16 82.3 48.2 102c64.3-19.7 48.3-102 48.3-102zm-5.9 42.6a76.5 76.5 0 01-12.5 31.7 56.8 56.8 0 01-12.8 13 63 63 0 01-17 8.5 63 63 0 01-17-8.5 56.8 56.8 0 01-12.8-12.8 76.3 76.3 0 01-12.6-31.6 127 127 0 01-1.5-29c.2-3.8.5-7 .8-9.1l43-10.8 43 10.8a130.2 130.2 0 01-.6 37.8z"/><path class="d" d="M945.1 762.2l-1-1c-2.1-1.6-2.3-2-2.4-2.2a.2.2 0 010-.3 32.6 32.6 0 002.8-11.4c0-1.9 0-7-6.2-7-6 0-6 5.1-6 7 0 3.1.9 6.8 2.8 11.3a.7.7 0 010 .4 10.5 10.5 0 01-2.4 2.3 70 70 0 01-3.9 2.6l-.9.5-.7.5.3.8c2.9 8 6.6 13.4 12 17.8l1.7 1.5v-19.7a1.1 1.1 0 01.5-1 26.5 26.5 0 002.3-1.3zM989 761.3a13.4 13.4 0 01-2.4-2.3.6.6 0 010-.3 29 29 0 002.9-11.4c0-1.9 0-7-6.1-7s-6.1 5.1-6.1 7a28.6 28.6 0 002.8 11.3.6.6 0 010 .4 9.5 9.5 0 01-2.4 2.3l-1.2.8 1.2.9a26.6 26.6 0 002.3 1.4 1 1 0 01.5.9v19.6l1.8-1.4c5.5-4.4 9.2-9.9 12-17.8l.2-.8-.7-.4-4.8-3.2z"/><path class="d" d="M978.4 765.5l-3-2c-4-2.5-7.6-4.9-10.6-8.2a.2.2 0 010-.2v-.2l.8-2.3c1.2-3.5 2.5-7 2.5-11 0-2.3 0-8.3-7.3-8.3-7 0-7 6-7 8.3a32.8 32.8 0 003.1 13.3 2 2 0 01.1.4 90 90 0 01-13.3 10l-.8.5v20.6l.6.3A31.3 31.3 0 00960 791h.8a33.8 33.8 0 0017.5-4.3l.6-.3v-20.6zM1255.8 761.6h4.8v4.8h-4.8zM1263 761.6h4.8v4.8h-4.8zM1270.6 761.6h4.8v4.8h-4.8z"/><path class="d" d="M1240.6 779.7h54.3a24.5 24.5 0 0114.8-5 25 25 0 015 .5V773a1 1 0 00-.9-1h-2.7a1 1 0 01-.9-.9v-14a1 1 0 011-1h2.6a1 1 0 001-.8v-5.9a1 1 0 00-1-1h-73.2a1 1 0 00-1 1v5.9a1 1 0 001 .9h2.7a1 1 0 01.9 1v14a1 1 0 01-1 .9h-2.6a1 1 0 00-1 1v5.7a1 1 0 001 1zm8.6-26h56v20.8h-56z"/><path class="d" d="M1293.4 760.2a3.8 3.8 0 102.7 1.1 3.8 3.8 0 00-2.7-1zM1255.8 796.2h4.8v4.8h-4.8zM1263 796.2h4.8v4.8h-4.8zM1270.6 796.2h4.8v4.8h-4.8zM1249.7 817.3a1.7 1.7 0 001.7 1.7h2.3a1.7 1.7 0 001.7-1.7v-3h-5.7zM1253.6 736.7l.9-.8v1.2l-.1 1v6.8h2.5v-11.6h-2l-3.8 3 1.2 1.5zM1266.8 744a3.8 3.8 0 001.2-3 3.4 3.4 0 00-1-2.6 3.7 3.7 0 00-2.7-1 5.5 5.5 0 00-1.2.2h-.3l.2-2.2h4.2v-2.1h-6.3l-.5 6 1 .4a6.8 6.8 0 01.8-.1 5.7 5.7 0 011-.1q2.3 0 2.3 1.7 0 1.9-2.3 1.9a7 7 0 01-3-.8v2.1a6.7 6.7 0 003.1.7 5 5 0 003.5-1zM1276.6 740.7a4.5 4.5 0 01.4-2.2 1.5 1.5 0 011.4-.7 1.1 1.1 0 011 .5 2.6 2.6 0 01.3 1.4v5.2h2.4v-4.4a3.6 3.6 0 01.5-2 1.5 1.5 0 011.3-.7 1.1 1.1 0 011 .5 2.6 2.6 0 01.3 1.4v5.2h2.5v-5.8a3.4 3.4 0 00-.8-2.5 3.1 3.1 0 00-2.3-.7 3.5 3.5 0 00-1.6.3 2.4 2.4 0 00-1 1h-.2a2.8 2.8 0 00-2.7-1.3 3.4 3.4 0 00-1.6.3 2.5 2.5 0 00-1 1h-.1l-.4-1.2h-1.8v9h2.4zM1290.2 736h2.4v8.9h-2.4zM1291.4 735a1.4 1.4 0 001-.4 1.2 1.2 0 00.3-.9q0-1.1-1.3-1.1t-1.3 1.1q0 1.2 1.3 1.2zM1297.5 740.7a4.2 4.2 0 01.5-2.2 1.6 1.6 0 011.5-.7 1.2 1.2 0 011 .5 2.5 2.5 0 01.4 1.4v5.2h2.4v-5.8a3.4 3.4 0 00-.8-2.4 3.1 3.1 0 00-2.3-.8 3.8 3.8 0 00-1.7.3 2.6 2.6 0 00-1 1h-.2l-.3-1.2h-1.9v9h2.4z"/><path class="d" d="M1309.7 774.7a24.5 24.5 0 00-18.3 8.2h-36v-3.2h-5.7v3.2h-9.1a1 1 0 00-1 1v5.8a1 1 0 001 1h2.7a1 1 0 01.9.9v14a1 1 0 01-1 1h-2.6a1 1 0 00-1 .9v5.8a1 1 0 001 1h49.6a24.6 24.6 0 1019.5-39.6zm-60.5 34.3v-20.8h38.6l.1-.2a24.6 24.6 0 00-.8 21zm40.7-24.3v0zm-.4.6l-.1.2zm-.5.8zm-.4.6v0zm-.3.6l-.2.2.2-.2zm35.2 25.8a19.5 19.5 0 115.8-13.8 19.4 19.4 0 01-5.8 13.8z"/><path class="d" d="M1323.1 799.8v-.1a2 2 0 00-1.5-.6H1311v-10.7a2 2 0 00-4 0V801a2 2 0 002 2H1321.8a2 2 0 00.8-.3 2 2 0 001-1.7 2 2 0 00-.5-1.3zM676.6 747.2h-70a9.6 9.6 0 00-9.5 9.6v41.7a9.5 9.5 0 009.5 9.5h24.6v4.3h-10.8a3.3 3.3 0 100 6.6h45a3.3 3.3 0 100-6.6h-10.9V808h22a9.5 9.5 0 009.6-9.5v-41.7a9.5 9.5 0 00-9.5-9.6zm4.6 51.3a4.6 4.6 0 01-4.6 4.5h-70a4.6 4.6 0 01-4.5-4.5v-41.7a4.6 4.6 0 014.5-4.6h70a4.6 4.6 0 014.6 4.6z"/><path class="d" d="M636.4 765.7h-4.7l-10.5 15.4v3.5h10.2v5h5v-5h2.9v-4h-3zm-4.9 8v7h-5.8l4.4-6.6a18 18 0 001.4-2.6h.1v2.2zM661.9 765.7h-5.6l-6.4 8.1-2 2.8v-10.9h-5.2v23.9h5.2V781l2-1.6 6.3 10h5.8l-8.4-13.2 8.3-10.6z"/><path class="c" d="M789.2 282.2q-11.3 0-17.8 7.5t-6.6 20.6q0 13.4 6.3 20.8t18 7.3a61.4 61.4 0 0016.4-2.6v7q-7.2 2.7-17.6 2.7-15.2 0-23.4-9.2t-8.2-26.1a41.2 41.2 0 014-18.6 28.4 28.4 0 0111.4-12.2 34.6 34.6 0 0117.6-4.4 42.5 42.5 0 0118.8 4l-3.4 6.8a36.3 36.3 0 00-15.5-3.6zM849.2 293.2h8.5L835.5 318l24 26.6h-9l-23.5-26v26h-7.8v-51.4h7.8v25zM900.7 344.6l-1.6-7.4h-.4a21.6 21.6 0 01-7.6 6.6 23.4 23.4 0 01-9.6 1.7q-7.6 0-12-4t-4.3-11.1q0-15.6 25-16.4l8.6-.2v-3.2q0-6-2.6-9t-8.3-2.8q-6.4 0-14.5 3.9l-2.4-6a36.5 36.5 0 018.3-3.2 36 36 0 019-1.2q9.3 0 13.7 4.1t4.4 13.1v35zM883 339q7.2 0 11.4-4t4.1-11.2v-4.6l-7.7.3q-9.3.3-13.4 2.9t-4.1 8a8 8 0 002.5 6.4q2.6 2.2 7.2 2.2zM929.3 293.2v18.7q0 9 10.3 9a25.3 25.3 0 008.1-1.3 41.6 41.6 0 008.8-4.4v-22h7.8v51.4h-7.8v-23.3a37 37 0 01-9 4.8 30.3 30.3 0 01-9.6 1.3q-7.7 0-12-4t-4.4-11v-19.2zM1012.4 344.6l-1.5-7.4h-.4a21.6 21.6 0 01-7.7 6.6 23.4 23.4 0 01-9.5 1.7q-7.7 0-12-4t-4.3-11.1q0-15.6 24.9-16.4l8.7-.2v-3.2q0-6-2.6-9t-8.3-2.8q-6.5 0-14.6 3.9l-2.4-6a36.5 36.5 0 018.4-3.2 36 36 0 019-1.2q9.2 0 13.6 4.1t4.5 13.1v35zm-17.6-5.5q7.3 0 11.4-4t4.2-11.2v-4.6l-7.8.3q-9.3.3-13.4 2.9t-4 8a8 8 0 002.5 6.4q2.5 2.2 7.1 2.2zM1068.8 299.8h-16.6v44.8h-7.8v-44.8h-16.5v-6.6h41zM1086.8 314.4h15.8q19.7 0 19.7 14.5 0 7.6-5.1 11.6t-15 4H1079v-51.3h7.8zm0 6.7v17h15q6.2 0 9.5-2.2a7.3 7.3 0 003.3-6.5 7 7 0 00-3-6.3q-3.1-2-10-2zM463.6 522.7a11.5 11.5 0 00-9.5 4.2q-3.5 4.3-3.5 11.9 0 7.8 3.3 11.9t9.7 4a25.2 25.2 0 005.2-.5l5.3-1.4v6a32.1 32.1 0 01-11.4 1.9q-9.4 0-14.4-5.7t-5-16.3a26.3 26.3 0 012.4-11.7 17.5 17.5 0 017-7.7 21.4 21.4 0 0111-2.6 27 27 0 0112 2.7l-2.5 5.8a37.5 37.5 0 00-4.6-1.8 16.5 16.5 0 00-5-.7zM496.8 560.7q-7.6 0-11.8-4.4t-4.3-12.2q0-7.9 4-12.4t10.8-4.6q6.4 0 10.2 4t3.7 10.6v3.8h-21.6q.1 4.7 2.5 7.2a8.9 8.9 0 006.8 2.6 25 25 0 005.4-.6 28 28 0 005.3-1.8v5.6a21.1 21.1 0 01-5.1 1.7 31.3 31.3 0 01-6 .5zm-1.3-28.4a7 7 0 00-5.2 2.1 10 10 0 00-2.4 6h14.7q0-4-2-6a6.6 6.6 0 00-5-2zM533.6 560.7a11.3 11.3 0 01-9.5-4.4h-.4l.4 5v13.2h-6.9v-46.8h5.6l1 4.3h.3q3.2-4.9 9.7-4.9a11.2 11.2 0 019.4 4.4q3.4 4.4 3.4 12.4t-3.4 12.3a11.3 11.3 0 01-9.6 4.5zm-1.6-28q-4.1 0-6 2.5t-1.9 7.6v1q0 6 1.9 8.6t6 2.7a6.2 6.2 0 005.6-3q2-2.9 2-8.3 0-5.5-2-8.3a6.4 6.4 0 00-5.6-2.8zM582.7 536q0 5.7-6.7 7v.2a9.6 9.6 0 015.8 2.3 6.7 6.7 0 012 5 8.1 8.1 0 01-3.6 7.1q-3.5 2.5-10.1 2.5h-15.5v-32.4H570q12.7 0 12.7 8.3zm-6.9.6a3 3 0 00-1.5-2.8 9.3 9.3 0 00-4.5-.9h-8.3v7.8h7.3a12 12 0 005.2-.9 3.3 3.3 0 001.8-3.2zm.9 13.5a3.5 3.5 0 00-1.8-3.3 11.8 11.8 0 00-5.5-1h-8v9.2h8.2q7 0 7-4.9zM605 560.7q-7.6 0-11.8-4.4t-4.3-12.2q0-7.9 4-12.4t10.8-4.6q6.4 0 10.2 4t3.7 10.6v3.8H596q.1 4.7 2.5 7.2a8.9 8.9 0 006.8 2.6 25 25 0 005.4-.6 28 28 0 005.3-1.8v5.6a21.1 21.1 0 01-5.1 1.7 31.3 31.3 0 01-6 .5zm-1.3-28.4a7 7 0 00-5.2 2.1 10 10 0 00-2.4 6h14.7q0-4-2-6a6.6 6.6 0 00-5-2zM641.8 560.7a11.3 11.3 0 01-9.5-4.4h-.4l.4 5v13.2h-6.9v-46.8h5.6l1 4.3h.3q3.2-4.9 9.7-4.9a11.2 11.2 0 019.4 4.4q3.4 4.4 3.4 12.4t-3.5 12.3a11.3 11.3 0 01-9.5 4.5zm-1.6-28q-4.1 0-6 2.5t-2 7.6v1q0 6 2 8.6t6 2.7a6.2 6.2 0 005.6-3q2-2.9 2-8.3 0-5.5-2-8.3a6.4 6.4 0 00-5.6-2.8zM706.5 536q0 5.7-6.7 7v.2a9.6 9.6 0 015.7 2.3 6.7 6.7 0 012 5 8.1 8.1 0 01-3.5 7.1q-3.5 2.5-10.2 2.5h-15.4v-32.4h15.4q12.7 0 12.7 8.3zm-6.9.6a3 3 0 00-1.5-2.8 9.3 9.3 0 00-4.5-.9h-8.3v7.8h7.3a12.1 12.1 0 005.2-.9 3.3 3.3 0 001.8-3.2zm.9 13.5a3.5 3.5 0 00-1.9-3.3 11.8 11.8 0 00-5.4-1h-8v9.2h8.2q7 0 7-4.9zM721.2 527.7v16.6q0 3-.5 8.5l16.3-25h8.4V560h-6.6v-16.3l.1-4.4q.1-3 .3-4.4L723 560.1h-8.4v-32.4zM786.3 571.6h-6.4V560h-22.2v11.5h-6.4v-16.8h2.7a40.4 40.4 0 005.5-12 65 65 0 002.4-15h19.7v27h4.7zm-11.5-16.8V533h-7a60 60 0 01-2.3 11.9 40.6 40.6 0 01-4.3 9.9zM806.5 560.7q-7.6 0-11.9-4.4t-4.2-12.2q0-7.9 4-12.4t10.8-4.6q6.4 0 10.1 4t3.8 10.6v3.8h-21.6q.1 4.7 2.5 7.2a8.9 8.9 0 006.8 2.6 25 25 0 005.3-.6 28 28 0 005.3-1.8v5.6a21.1 21.1 0 01-5 1.7 31.3 31.3 0 01-6 .5zm-1.3-28.4a7 7 0 00-5.3 2.1 10 10 0 00-2.3 6h14.7q0-4-2-6a6.6 6.6 0 00-5.1-2zM855.6 543.9q0 7.9-4 12.3t-11.4 4.5a15.5 15.5 0 01-8-2 13.5 13.5 0 01-5.4-6 20 20 0 01-1.9-8.8q0-8 4-12.3t11.5-4.5q7 0 11.1 4.6t4.1 12.2zm-23.6 0q0 11.2 8.3 11.2 8.2 0 8.2-11.2 0-11.1-8.2-11.1-4.4 0-6.3 2.8t-2 8.3zM883.6 527.7h7.6l-13.4 15.6 14.5 16.8h-7.9l-14-16.4V560h-6.9v-32.4h7v15.7zM926.4 543.9q0 7.9-4 12.3t-11.4 4.5a15.5 15.5 0 01-8-2 13.5 13.5 0 01-5.4-6 20 20 0 01-1.9-8.8q0-8 4-12.3t11.5-4.5q7 0 11.1 4.6t4.1 12.2zm-23.6 0q0 11.2 8.3 11.2 8.2 0 8.2-11.2 0-11.1-8.3-11.1-4.3 0-6.2 2.8t-2 8.3zM941.2 527.7v13h15.3v-13h6.8v32.4h-6.8v-14h-15.3v14h-6.9v-32.4zM1011.1 544q0 7.2-4.4 11.5t-12.2 5v14H988v-14q-7.7-.6-12.2-5a15.5 15.5 0 01-4.5-11.6q0-7.4 4.3-11.7t12.4-4.8v-12.9h6.5v12.9q7.8.7 12.2 5t4.4 11.5zm-32.7 0a11.8 11.8 0 002.4 7.6q2.4 3 7.2 3.5v-22.4q-4.8.6-7.2 3.5a11.7 11.7 0 00-2.4 7.7zm25.6 0a11.5 11.5 0 00-2.4-7.7 10.4 10.4 0 00-7.1-3.4V555q4.8-.6 7.1-3.5a11.9 11.9 0 002.4-7.7zM1033.2 560.7q-7.6 0-11.8-4.4T1017 544q0-7.9 4-12.4t10.8-4.6q6.4 0 10.2 4t3.7 10.6v3.8h-21.6q.1 4.7 2.5 7.2a8.9 8.9 0 006.8 2.6 25 25 0 005.4-.6 28 28 0 005.3-1.8v5.6a21.1 21.1 0 01-5.1 1.7 31.3 31.3 0 01-6 .5zm-1.3-28.4a7 7 0 00-5.2 2.1 10 10 0 00-2.4 6h14.7q0-4-2-6a6.6 6.6 0 00-5-2zM1070 560.7a11.3 11.3 0 01-9.5-4.4h-.4l.4 5v13.2h-6.9v-46.8h5.6l1 4.3h.3q3.2-4.9 9.7-4.9a11.2 11.2 0 019.4 4.4q3.4 4.4 3.4 12.4t-3.5 12.3a11.3 11.3 0 01-9.5 4.5zm-1.6-28q-4.1 0-6 2.5t-2 7.6v1q0 6 2 8.6t6 2.7a6.2 6.2 0 005.6-3q2-2.9 2-8.3 0-5.5-2-8.3a6.4 6.4 0 00-5.6-2.8zM1105.1 560.7q-7.5 0-11.8-4.4t-4.2-12.2q0-7.9 4-12.4t10.8-4.6q6.4 0 10.1 4t3.7 10.6v3.8h-21.6q.2 4.7 2.6 7.2a8.9 8.9 0 006.8 2.6 25 25 0 005.3-.6 28 28 0 005.3-1.8v5.6a21.1 21.1 0 01-5 1.7 31.3 31.3 0 01-6 .5zm-1.2-28.4a7 7 0 00-5.3 2.1 10 10 0 00-2.3 6h14.7q0-4-2-6a6.6 6.6 0 00-5.1-2zM1132.4 527.7v13h15.3v-13h6.9v32.4h-6.9v-14h-15.3v14h-6.8v-32.4zM1193.3 554.8h4.7v16.7h-6.5v-11.4h-27v-32.4h6.8v27h15.1v-27h6.9zM1217 560.7q-7.4 0-11.2-4.3t-3.9-12.3q0-8.2 4-12.6t11.6-4.4a21.6 21.6 0 019.2 2l-2 5.5a20.9 20.9 0 00-7.3-1.7q-8.4 0-8.4 11.1 0 5.5 2.1 8.2a7.2 7.2 0 006.2 2.8 17.6 17.6 0 008.7-2.3v6a13.6 13.6 0 01-4 1.5 23.7 23.7 0 01-5 .5zM1261.7 536q0 5.7-6.7 7v.2a9.6 9.6 0 015.7 2.3 6.7 6.7 0 012 5 8.1 8.1 0 01-3.5 7.1q-3.5 2.5-10.2 2.5h-15.4v-32.4h15.4q12.7 0 12.7 8.3zm-6.9.6a3 3 0 00-1.5-2.8 9.3 9.3 0 00-4.5-.9h-8.3v7.8h7.3a12 12 0 005.2-.9 3.3 3.3 0 001.8-3.2zm.9 13.5a3.5 3.5 0 00-1.9-3.3 11.8 11.8 0 00-5.4-1h-8v9.2h8.2q7 0 7-4.9zM1273.1 560.1h-7.7l9-13.3a9.7 9.7 0 01-5.1-3.3 9.5 9.5 0 01-1.9-6 8.7 8.7 0 013.3-7.2q3.3-2.6 9-2.6h14.7v32.4h-6.9v-12.5h-6.5zm1-22.5a4.2 4.2 0 002 3.7 9.1 9.1 0 005 1.2h6.4V533h-7.5a7 7 0 00-4.3 1.2 4 4 0 00-1.6 3.5zM1311.4 540.7a17.4 17.4 0 007-1 3.4 3.4 0 002.2-3.3q0-4-7-4a24.1 24.1 0 00-9.6 2.2l-2.2-5.2a32.7 32.7 0 0112.4-2.3q6 0 9.4 2.2a7.2 7.2 0 013.3 6.4q0 5.4-6.2 7.1v.3a11 11 0 015.6 3 7.2 7.2 0 011.7 4.8 8.2 8.2 0 01-4 7.1q-3.8 2.7-10.9 2.7-7.6 0-11.6-2v-6a25.8 25.8 0 0011 2.5 14.2 14.2 0 006.4-1.1 4 4 0 000-7.1q-2.2-1.2-7-1.2h-4v-5.1zM1342 527.7v16.6q0 3-.5 8.5l16.3-25h8.4V560h-6.6v-16.3l.1-4.4q.1-3 .3-4.4l-16.2 25.1h-8.4v-32.4zM1422.6 560.1h-7.5l-17.6-33.3h-.4q.6 7.5.6 12V560h-6.1v-42.8h7.7l17.4 33.1h.3q-.5-7.2-.5-11.5v-21.6h6.1zm22.9-18.4q0 4.9-2.5 7.6a9 9 0 01-7 2.8 8.8 8.8 0 01-6.8-2.8q-2.6-2.7-2.6-7.6t2.5-7.6a9 9 0 017-2.8 8.7 8.7 0 016.8 2.9 10.9 10.9 0 012.6 7.5zm-17.9 18.4v-4.7h16.9v4.7zm4-18.4a8.6 8.6 0 001 4.7 4 4 0 003.5 1.6 3.8 3.8 0 003.4-1.6 8.6 8.6 0 001-4.7 8.4 8.4 0 00-1-4.7 3.9 3.9 0 00-3.4-1.6 4 4 0 00-3.5 1.6 8.2 8.2 0 00-1 4.7zM1471 560.1h-7v-27.6q0-5 .3-7.9l-1.7 1.6-6.6 5.3-3.4-4.3 12.6-10h5.7zM871 1001a10.9 10.9 0 002.7-.4v2.3a5.7 5.7 0 01-1.4.4 11.2 11.2 0 01-1.8.2q-5.9 0-5.9-6.2v-12.1h-2.9v-1.5l3-1.3 1.2-4.3h1.8v4.7h5.9v2.4h-6v12a4.1 4.1 0 001 2.8 3 3 0 002.4 1zM887 982.4a12 12 0 012.5.2l-.4 2.9a10.5 10.5 0 00-2.2-.3 5.4 5.4 0 00-4.3 2 7.3 7.3 0 00-1.7 5v10.9h-3.1v-20.3h2.5l.4 3.7h.1a9 9 0 012.8-3 6.1 6.1 0 013.5-1.1zM896.2 982.8V996a5.3 5.3 0 001.1 3.7 4.6 4.6 0 003.6 1.2 5.8 5.8 0 004.6-1.7q1.5-1.8 1.5-5.7v-10.7h3.1v20.3h-2.5l-.5-2.7h-.2a6.1 6.1 0 01-2.6 2.3 8.8 8.8 0 01-3.8.8q-3.7 0-5.6-1.8t-1.8-5.6v-13.3zM925.2 1003.5a9.3 9.3 0 01-7-2.8q-2.7-2.7-2.7-7.6a11.8 11.8 0 012.4-7.8 8 8 0 016.5-2.9 7.7 7.7 0 016 2.5 9.6 9.6 0 012.3 6.7v1.9h-14a8 8 0 001.8 5.4 6.3 6.3 0 004.8 1.9 16.4 16.4 0 006.5-1.4v2.8a16.3 16.3 0 01-3 1 17.4 17.4 0 01-3.6.3zm-.8-18.5a5 5 0 00-4 1.6 7.4 7.4 0 00-1.6 4.4h10.6a6.8 6.8 0 00-1.3-4.5 4.6 4.6 0 00-3.7-1.5zM946 1003.5a8.7 8.7 0 01-6.8-2.7q-2.4-2.8-2.4-7.7 0-5.1 2.5-8a8.9 8.9 0 017-2.7 14 14 0 013 .3 9.7 9.7 0 012.2.8l-1 2.6a14.6 14.6 0 00-2.2-.7 10 10 0 00-2.1-.3q-6.2 0-6.2 8a9.4 9.4 0 001.5 5.7 5.3 5.3 0 004.5 2 13.7 13.7 0 005.2-1.1v2.7a11.1 11.1 0 01-5.1 1zM973.6 993q0 4.9-2.5 7.7a8.8 8.8 0 01-7 2.8 9.2 9.2 0 01-4.8-1.3 8.4 8.4 0 01-3.2-3.7 12.8 12.8 0 01-1.2-5.6q0-5 2.5-7.7a8.8 8.8 0 017-2.8 8.6 8.6 0 016.7 2.8 11.2 11.2 0 012.5 7.7zm-15.5 0a9.6 9.6 0 001.6 5.9 6.2 6.2 0 009.1 0 9.6 9.6 0 001.6-6 9.4 9.4 0 00-1.6-5.9 5.5 5.5 0 00-4.6-2 5.4 5.4 0 00-4.6 2q-1.5 2-1.5 6zM993 1003.1V990a5.3 5.3 0 00-1.2-3.8 4.6 4.6 0 00-3.6-1.2 5.8 5.8 0 00-4.6 1.7q-1.5 1.8-1.5 5.7v10.7H979v-20.3h2.5l.5 2.8h.1a6.3 6.3 0 012.7-2.4 8.6 8.6 0 013.8-.8 7.7 7.7 0 015.5 1.8q1.9 1.7 1.9 5.6v13.3zM1011.5 985.2h-5.2v18h-3v-18h-3.7v-1.4l3.6-1.1v-1.2q0-7.5 6.6-7.5a13.5 13.5 0 013.8.7l-.8 2.4a10.2 10.2 0 00-3-.5 3 3 0 00-2.7 1.1 6.5 6.5 0 00-.8 3.8v1.3h5.2zM1014.8 1001.1a2.8 2.8 0 01.5-1.8 2 2 0 011.6-.7 2.2 2.2 0 011.7.7 2.7 2.7 0 01.6 1.8 2.6 2.6 0 01-.6 1.9 2.4 2.4 0 01-3.2 0 2.5 2.5 0 01-.6-1.9zM1034.6 982.4a12 12 0 012.4.2l-.4 2.9a10.5 10.5 0 00-2.2-.3 5.4 5.4 0 00-4.3 2 7.3 7.3 0 00-1.7 5v10.9h-3v-20.3h2.5l.3 3.7h.2a9 9 0 012.7-3 6.1 6.1 0 013.5-1.1zM1043.7 982.8V996a5.3 5.3 0 001.1 3.7 4.6 4.6 0 003.6 1.2 5.8 5.8 0 004.7-1.7q1.4-1.8 1.4-5.7v-10.7h3.1v20.3h-2.5l-.5-2.7h-.1a6.1 6.1 0 01-2.7 2.3 8.8 8.8 0 01-3.8.8q-3.7 0-5.6-1.8t-1.8-5.6v-13.3zM521.3 873.8h-2.7l-8.5-9.4v9.4h-2.2v-18.6h2.2v9l8.3-9h2.5l-8.2 9zM534 866.8a7.7 7.7 0 01-1.8 5.3 6 6 0 01-4.7 2 6.3 6.3 0 01-3.3-1 5.8 5.8 0 01-2.3-2.5 8.8 8.8 0 01-.7-3.8 7.7 7.7 0 011.7-5.3 6 6 0 014.7-1.9 5.9 5.9 0 014.6 2 7.6 7.6 0 011.7 5.2zm-10.7 0a6.6 6.6 0 001.1 4 4.2 4.2 0 006.3 0 6.6 6.6 0 001-4 6.5 6.5 0 00-1-4 3.8 3.8 0 00-3.2-1.4 3.7 3.7 0 00-3.1 1.4 6.5 6.5 0 00-1 4zM538.2 859.9v5.8h7.8v-5.8h2v13.9h-2v-6.3h-7.8v6.3H536v-14zM565.9 866.8a7 7 0 01-1.8 5 7.5 7.5 0 01-5 2.2v6H557v-6a7.4 7.4 0 01-5-2.2 7 7 0 01-1.8-5 6.9 6.9 0 011.8-5 7.6 7.6 0 015-2.1V854h2v5.7a7.6 7.6 0 015 2.2 6.9 6.9 0 011.9 5zm-13.5 0a6 6 0 001.1 3.8 5 5 0 003.6 1.6v-10.8a5.1 5.1 0 00-3.5 1.6 5.7 5.7 0 00-1.2 3.8zm11.3 0q0-4.9-4.6-5.3v10.7a5 5 0 003.5-1.6 6 6 0 001.1-3.8zM573.9 874a6.4 6.4 0 01-4.9-1.8 7.3 7.3 0 01-1.8-5.3 8 8 0 011.7-5.3 5.5 5.5 0 014.5-2 5.2 5.2 0 014 1.7 6.6 6.6 0 011.6 4.6v1.3h-9.6a5.5 5.5 0 001.3 3.7 4.3 4.3 0 003.3 1.3 11.2 11.2 0 004.4-1v2a11 11 0 01-2.1.6 11.8 11.8 0 01-2.4.2zm-.6-12.6a3.4 3.4 0 00-2.6 1 5 5 0 00-1.2 3h7.3a4.6 4.6 0 00-1-3 3.1 3.1 0 00-2.5-1zM587.5 874a6 6 0 01-2.5-.5 4.7 4.7 0 01-1.8-1.5h-.2a18.6 18.6 0 01.2 2.3v5.7H581V860h1.8l.3 1.9a4.9 4.9 0 012-1.7 5.7 5.7 0 012.4-.5 5.1 5.1 0 014.3 1.9 10 10 0 010 10.6 5.2 5.2 0 01-4.3 2zm-.3-12.6a3.7 3.7 0 00-3 1.2 6 6 0 00-1 3.7v.5a7 7 0 001 4.2 3.7 3.7 0 003 1.3 3.3 3.3 0 002.9-1.5 7 7 0 001-4 6.7 6.7 0 00-1-4 3.4 3.4 0 00-2.9-1.4zM601.3 874a6.4 6.4 0 01-4.9-1.8 7.3 7.3 0 01-1.8-5.3 8 8 0 011.7-5.3 5.5 5.5 0 014.4-2 5.2 5.2 0 014.2 1.7 6.6 6.6 0 011.5 4.6v1.3h-9.6a5.5 5.5 0 001.3 3.7 4.3 4.3 0 003.3 1.3 11.2 11.2 0 004.4-1v2a11 11 0 01-2.1.6 11.8 11.8 0 01-2.4.2zm-.6-12.6a3.4 3.4 0 00-2.6 1 5 5 0 00-1.2 3h7.3a4.6 4.6 0 00-1-3 3.1 3.1 0 00-2.5-1zM610.6 859.9v5.8h7.7v-5.8h2.2v13.9h-2.2v-6.3h-7.7v6.3h-2.2v-14zM637 878.6h-2.2v-4.8h-11.4v-14h2V872h7.5v-12.1h2v12h2zM640 859.9v11.8l7.5-11.8h2.6v13.9h-2v-10.2l.1-1.7-7.5 11.9h-2.6v-14zM655 859.9v8.8l-.1 2.3v.7l7.5-11.8h2.6v13.9h-2v-10.2l.1-1.7-7.5 11.9H653v-14zM684.4 863.4a2.6 2.6 0 01-.8 2 4.3 4.3 0 01-2.2 1 4.5 4.5 0 012.6 1.1 3 3 0 01.8 2.2 3.5 3.5 0 01-1.4 3 7 7 0 01-4.2 1h-6V860h6q5.2 0 5.2 3.5zm-2 .2a1.5 1.5 0 00-.8-1.5 5.1 5.1 0 00-2.4-.4h-4v4h3.6a5.7 5.7 0 002.7-.6 1.7 1.7 0 00.8-1.5zm.3 6a1.8 1.8 0 00-.8-1.7 5.8 5.8 0 00-2.9-.5h-3.8v4.6h3.9q3.6 0 3.6-2.4zM705.9 855.2v12a6.5 6.5 0 01-2 5 7.4 7.4 0 01-5.2 1.8 7 7 0 01-5.2-1.8 6.8 6.8 0 01-1.8-5v-12h2.1v12.1a4.8 4.8 0 001.3 3.6 5.1 5.1 0 003.7 1.2 5 5 0 003.6-1.2 4.8 4.8 0 001.3-3.6v-12zM711 873.8H709V854h2.1zM718.4 872.3a6.9 6.9 0 001 0 7 7 0 001-.3v1.7a3.9 3.9 0 01-1 .2 7.6 7.6 0 01-1.3.1q-4 0-4-4.2v-8.3h-2v-1l2-.9.9-3h1.2v3.3h4v1.6h-4v8.2a2.8 2.8 0 00.6 2 2 2 0 001.6.6zM727.9 859.6a8.3 8.3 0 011.6.2l-.2 2a7.2 7.2 0 00-1.6-.3 3.7 3.7 0 00-2.9 1.4 5 5 0 00-1.2 3.4v7.5h-2v-14h1.7l.2 2.6h.1a6.1 6.1 0 011.9-2 4.2 4.2 0 012.4-.8zM739.1 873.8l-.4-2a5.8 5.8 0 01-2.1 1.8 6.3 6.3 0 01-2.6.4 4.6 4.6 0 01-3.3-1 3.9 3.9 0 01-1.1-3q0-4.3 6.7-4.5h2.4v-1a3.5 3.5 0 00-.7-2.3 2.9 2.9 0 00-2.3-.8 9.2 9.2 0 00-4 1l-.6-1.6a10.1 10.1 0 014.7-1.2 5.3 5.3 0 013.7 1.1 4.6 4.6 0 011.2 3.6v9.5zm-4.7-1.5a4.3 4.3 0 003-1 4 4 0 001.2-3.1v-1.3l-2.1.1a7.6 7.6 0 00-3.6.8 2.4 2.4 0 00-1.1 2.2 2.2 2.2 0 00.7 1.7 2.9 2.9 0 001.9.6zM757.9 873.8h-2.2V865H746v8.8h-2.2v-18.6h2.2v8h9.7v-8h2.2zM776.2 864.3q0 4.6-2.5 7t-7.1 2.5h-5.2v-18.6h5.7a8.3 8.3 0 019.1 9.1zm-2.2.1a7.5 7.5 0 00-1.9-5.5 7.3 7.3 0 00-5.4-1.8h-3.1v14.8h2.6q3.9 0 5.8-1.9a7.5 7.5 0 002-5.6zM863 865.8l-2.3-6h-7.5l-2.3 6h-2.1L856 847h1.8l7.3 18.7zm-3-7.9l-2.2-5.7-.8-2.7a24 24 0 01-.8 2.7l-2.2 5.7zM877.2 855.4a2.6 2.6 0 01-.8 2 4.3 4.3 0 01-2.2 1 4.5 4.5 0 012.6 1.1 3 3 0 01.8 2.2 3.5 3.5 0 01-1.4 3 7 7 0 01-4.2 1H866V852h6.1q5.2 0 5.2 3.5zm-2 .2a1.5 1.5 0 00-.9-1.5 5.1 5.1 0 00-2.3-.4h-4v4h3.6a5.7 5.7 0 002.7-.6 1.7 1.7 0 00.8-1.5zm.3 6a1.8 1.8 0 00-.8-1.7 5.8 5.8 0 00-2.9-.5H868v4.6h3.9q3.6 0 3.6-2.4zM888.5 853.7H884v12h-2.1v-12h-4.5v-1.8h11.1zM901.7 858.8a7.7 7.7 0 01-1.7 5.3 6 6 0 01-4.8 2 6.3 6.3 0 01-3.3-1 5.8 5.8 0 01-2.2-2.5 8.8 8.8 0 01-.8-3.8 7.7 7.7 0 011.7-5.3 6 6 0 014.7-1.9 5.9 5.9 0 014.7 2 7.6 7.6 0 011.7 5.2zm-10.6 0a6.6 6.6 0 001 4 4.2 4.2 0 006.3 0 6.6 6.6 0 001.1-4 6.5 6.5 0 00-1-4 3.8 3.8 0 00-3.2-1.4 3.7 3.7 0 00-3.1 1.4 6.5 6.5 0 00-1.1 4zM906 851.9v5.8h7.7v-5.8h2.1v13.9h-2v-6.3h-7.9v6.3h-2v-14zM930.8 858.8a7.7 7.7 0 01-1.7 5.3 6 6 0 01-4.8 2 6.3 6.3 0 01-3.3-1 5.8 5.8 0 01-2.2-2.5 8.8 8.8 0 01-.8-3.8 7.7 7.7 0 011.7-5.3 6 6 0 014.7-1.9 5.9 5.9 0 014.6 2 7.6 7.6 0 011.8 5.2zm-10.6 0a6.6 6.6 0 001 4 4.2 4.2 0 006.3 0 6.6 6.6 0 001-4 6.5 6.5 0 00-1-4 3.8 3.8 0 00-3.2-1.4 3.7 3.7 0 00-3 1.4 6.5 6.5 0 00-1.1 4zM940.1 863.7l.4-1.1.6-1.5 3.7-9.2h2.7v13.9h-1.9v-11.5l-.2.7-.7 2-3.6 8.8h-1.8l-3.6-8.9a25.9 25.9 0 01-1-2.6v11.5H933v-14h2.6l3.6 9a31.8 31.8 0 011 3zM952.6 851.9v5.8h7.8v-5.8h2v13.9h-2v-6.3h-7.8v6.3h-2.2v-14zM974 865.8l-.5-2h-.1a5.9 5.9 0 01-2 1.8 6.3 6.3 0 01-2.7.4 4.6 4.6 0 01-3.2-1 3.9 3.9 0 01-1.2-3q0-4.3 6.8-4.5h2.3v-1a3.5 3.5 0 00-.7-2.3 2.9 2.9 0 00-2.2-.8 9.2 9.2 0 00-4 1l-.6-1.6a9.9 9.9 0 012.2-.8 9.8 9.8 0 012.5-.4 5.3 5.3 0 013.7 1.1 4.6 4.6 0 011.2 3.6v9.5zm-4.8-1.5a4.3 4.3 0 003-1 4 4 0 001.2-3.1v-1.3l-2.1.1a7.6 7.6 0 00-3.7.8 2.4 2.4 0 00-1 2.2 2.2 2.2 0 00.6 1.7 2.9 2.9 0 002 .6zM979 865.8h-2.5l4-5.9a4.3 4.3 0 01-2.5-1.4 3.9 3.9 0 01-.8-2.5 3.7 3.7 0 011.3-3 5.4 5.4 0 013.5-1.1h6.2v13.9h-2v-5.6h-3.6zm.2-9.8q0 2.4 3.5 2.4h3.4v-4.7h-3.8q-3 0-3 2.3zM1002.8 866a6 6 0 01-2.5-.5 4.7 4.7 0 01-1.9-1.5h-.1a18.8 18.8 0 01.1 2.3v5.7h-2V852h1.6l.3 1.9h.1a4.9 4.9 0 012-1.7 5.7 5.7 0 012.4-.5 5.1 5.1 0 014.3 1.9 10 10 0 010 10.6 5.1 5.1 0 01-4.3 2zm-.3-12.6a3.7 3.7 0 00-3 1.2 6 6 0 00-1 3.7v.5a7 7 0 001 4.2 3.7 3.7 0 003 1.3 3.3 3.3 0 002.9-1.5 7 7 0 001-4 6.7 6.7 0 00-1-4 3.4 3.4 0 00-2.9-1.4zM1019.3 865.8l-.5-2a5.9 5.9 0 01-2.1 1.8 6.3 6.3 0 01-2.6.4 4.7 4.7 0 01-3.3-1 3.9 3.9 0 01-1.1-3q0-4.3 6.7-4.5h2.4v-1a3.5 3.5 0 00-.7-2.3 2.9 2.9 0 00-2.3-.8 9.2 9.2 0 00-4 1l-.6-1.6a9.9 9.9 0 012.3-.8 9.7 9.7 0 012.4-.4 5.3 5.3 0 013.7 1.1 4.6 4.6 0 011.2 3.6v9.5zm-4.8-1.5a4.3 4.3 0 003-1 4 4 0 001.2-3.1v-1.3l-2 .1a7.6 7.6 0 00-3.7.8 2.4 2.4 0 00-1.1 2.2 2.2 2.2 0 00.7 1.7 2.9 2.9 0 001.9.6zM1022.9 857.4a15.5 15.5 0 011.3-7 6 6 0 014.3-3.3q3.6-.8 6.4-1.2l.4 1.8q-4.4.7-6.3 1.2a4.1 4.1 0 00-2.8 2 9 9 0 00-1 4.2h.2a5.5 5.5 0 012-1.7 5.8 5.8 0 012.6-.6 5 5 0 014 1.7 6.8 6.8 0 011.4 4.6 7.3 7.3 0 01-1.6 5.1 6 6 0 01-4.7 1.8 5.4 5.4 0 01-4.6-2.2 10.5 10.5 0 01-1.6-6.4zm6.4 6.9q3.9 0 3.9-5 0-4.7-3.5-4.7a4.5 4.5 0 00-1.9.4 6.3 6.3 0 00-1.6 1 5.6 5.6 0 00-1.2 1.4 10 10 0 001 5.1 3.5 3.5 0 003.3 1.8zM1049.6 858.8a7.7 7.7 0 01-1.8 5.3 6 6 0 01-4.7 2 6.3 6.3 0 01-3.3-1 5.8 5.8 0 01-2.2-2.5 8.8 8.8 0 01-.8-3.8 7.7 7.7 0 011.7-5.3 6 6 0 014.7-1.9 5.9 5.9 0 014.6 2 7.6 7.6 0 011.8 5.2zm-10.6 0a6.6 6.6 0 001 4 4.2 4.2 0 006.3 0 6.6 6.6 0 001-4 6.5 6.5 0 00-1-4 3.8 3.8 0 00-3.2-1.4 3.7 3.7 0 00-3 1.4 6.5 6.5 0 00-1.1 4zM1061 853.7h-4.4v12h-2.2v-12h-4.4v-1.8h11zM1070.8 865.8l-.4-2a5.9 5.9 0 01-2.2 1.8 6.3 6.3 0 01-2.6.4 4.6 4.6 0 01-3.2-1 3.9 3.9 0 01-1.2-3q0-4.3 6.8-4.5h2.3v-1a3.5 3.5 0 00-.7-2.3 2.9 2.9 0 00-2.2-.8 9.2 9.2 0 00-4 1l-.6-1.6a10.1 10.1 0 014.7-1.2 5.3 5.3 0 013.7 1.1 4.6 4.6 0 011.2 3.6v9.5zm-4.7-1.5a4.3 4.3 0 003-1 4 4 0 001.2-3.1v-1.3l-2.1.1a7.7 7.7 0 00-3.7.8 2.4 2.4 0 00-1 2.2 2.2 2.2 0 00.6 1.7 2.9 2.9 0 002 .6zM882 881.4a2.6 2.6 0 01-.8 2 4.3 4.3 0 01-2.2 1 4.5 4.5 0 012.6 1.1 3 3 0 01.8 2.2 3.5 3.5 0 01-1.4 3 7 7 0 01-4.2 1h-6.1V878h6q5.2 0 5.2 3.5zm-2.1.2a1.5 1.5 0 00-.8-1.5 5.1 5.1 0 00-2.4-.4h-4v4h3.6a5.7 5.7 0 002.8-.6 1.7 1.7 0 00.8-1.5zm.4 6a1.8 1.8 0 00-.9-1.7 5.8 5.8 0 00-2.8-.5h-3.8v4.6h3.8q3.7 0 3.7-2.4zM891.7 883.6q4 0 4-2.1t-3.2-2.1a8.2 8.2 0 00-1.8.2 13.4 13.4 0 00-2.1.7l-.7-1.7a11.4 11.4 0 014.7-1 6.4 6.4 0 013.7 1 3.1 3.1 0 011.4 2.7q0 2.3-2.6 3v.1a4.7 4.7 0 012.4 1.4 3.3 3.3 0 01.7 2.2 3.4 3.4 0 01-1.6 3 7.5 7.5 0 01-4.3 1 9.8 9.8 0 01-4.6-.9v-1.9a11 11 0 004.7 1 5 5 0 002.8-.5 2 2 0 00.9-1.8q0-2.5-4-2.5h-1.9v-1.8zM908.6 891.8l-.4-2a5.9 5.9 0 01-2.2 1.8 6.3 6.3 0 01-2.5.4 4.6 4.6 0 01-3.3-1 3.9 3.9 0 01-1.2-3q0-4.3 6.8-4.5h2.3v-1a3.5 3.5 0 00-.7-2.3 2.9 2.9 0 00-2.2-.8 9.2 9.2 0 00-4 1l-.6-1.6a9.9 9.9 0 012.3-.8 9.8 9.8 0 012.4-.4 5.3 5.3 0 013.7 1.1 4.6 4.6 0 011.2 3.6v9.5zm-4.7-1.5a4.3 4.3 0 003-1 4 4 0 001.2-3.1v-1.3l-2.1.1a7.6 7.6 0 00-3.6.8 2.4 2.4 0 00-1.2 2.2 2.2 2.2 0 00.7 1.7 2.9 2.9 0 002 .6zM921 877.9h2.4l-6 6.7 6.5 7.2h-2.5l-6.3-7v7H913v-14h2v6.8zM931.4 892a6 6 0 01-2.5-.5 4.7 4.7 0 01-1.9-1.5h-.1a18.8 18.8 0 01.1 2.3v5.7h-2V878h1.6l.3 1.9h.1a4.9 4.9 0 012-1.7 5.7 5.7 0 012.4-.5 5.1 5.1 0 014.3 1.9 10 10 0 010 10.6 5.1 5.1 0 01-4.3 2zm-.3-12.6a3.7 3.7 0 00-3.1 1.2 6 6 0 00-1 3.7v.5a7 7 0 001 4.2 3.7 3.7 0 003.1 1.3 3.3 3.3 0 002.9-1.5 7 7 0 001-4 6.7 6.7 0 00-1-4 3.4 3.4 0 00-3-1.4zM948.7 879.7H944v12h-2v-12h-4.5v-1.8h11zM952 883.6h3.8a6.4 6.4 0 013.9 1 3.5 3.5 0 011.3 3 3.8 3.8 0 01-1.4 3.1 6.3 6.3 0 01-4 1H950V878h2zm0 1.8v4.6h3.5q3.4 0 3.4-2.3a2 2 0 00-.8-1.7 4.9 4.9 0 00-2.6-.6zm13.4 6.4h-2.1v-14h2.1zM977.7 879.7h-4.5v12H971v-12h-4.5v-1.8h11.1z"/><path class="c" d="M982.2 884.7l-4.8-6.8h2.4l3.7 5.3 3.6-5.3h2.4l-4.8 6.8 5 7h-2.3l-4-5.6-3.9 5.7h-2.3zM1001.7 892a6 6 0 01-4.7-1.8 7.6 7.6 0 01-1.6-5.3 7.9 7.9 0 011.7-5.4 6 6 0 014.7-1.9 9.5 9.5 0 012 .2 6.6 6.6 0 011.6.5l-.6 1.8a10 10 0 00-1.5-.4 6.8 6.8 0 00-1.5-.2q-4.2 0-4.2 5.4a6.4 6.4 0 001 4 3.6 3.6 0 003 1.3 9.4 9.4 0 003.6-.8v2a7.6 7.6 0 01-3.5.6zM1012.8 892a6.4 6.4 0 01-4.8-1.8 7.3 7.3 0 01-1.8-5.3 8 8 0 011.7-5.3 5.5 5.5 0 014.4-2 5.2 5.2 0 014.1 1.7 6.6 6.6 0 011.6 4.6v1.3h-9.6a5.5 5.5 0 001.2 3.7 4.3 4.3 0 003.3 1.3 11.2 11.2 0 004.5-1v2a11 11 0 01-2.1.6 11.8 11.8 0 01-2.5.2zm-.5-12.6a3.4 3.4 0 00-2.7 1 5 5 0 00-1.2 3h7.3a4.6 4.6 0 00-.9-3 3.1 3.1 0 00-2.5-1zM1029.4 879.7h-4.5v12h-2.2v-12h-4.4v-1.8h11zM1031.3 891.8h-2.5l4-5.9a4.3 4.3 0 01-2.5-1.4 3.9 3.9 0 01-.8-2.5 3.7 3.7 0 011.3-3 5.4 5.4 0 013.5-1.1h6.2v13.9h-2v-5.6h-3.6zm.2-9.8q0 2.4 3.5 2.4h3.4v-4.7h-3.8q-3 0-3 2.3zM1046.8 884.7l-4.8-6.8h2.4l3.6 5.3 3.7-5.3h2.4l-4.9 6.8 5.1 7h-2.4l-3.9-5.6-4 5.7h-2.3zM1157.7 864.7a7.4 7.4 0 01-2.5-.4v-2.1a5.7 5.7 0 002.4.5 3.6 3.6 0 002.2-.6 6.6 6.6 0 001.7-2.4l-7.2-13.8h2.4l5.5 10.5a7.2 7.2 0 01.5 1.2 13.7 13.7 0 01.6-1.3l4.5-10.4h2.3l-6 13.2a17.1 17.1 0 01-1.8 3.5 5.4 5.4 0 01-2 1.6 6.2 6.2 0 01-2.6.5zM1176.3 864.7a6 6 0 01-4.6-1.9 7.6 7.6 0 01-1.7-5.2 7.9 7.9 0 011.7-5.4 6 6 0 014.8-2 9.5 9.5 0 012 .3 6.6 6.6 0 011.6.5l-.7 1.8a9.9 9.9 0 00-1.5-.5 6.8 6.8 0 00-1.5-.2q-4.2 0-4.2 5.4a6.4 6.4 0 001 4 3.6 3.6 0 003 1.3 9.4 9.4 0 003.7-.7v1.8a7.6 7.6 0 01-3.6.8z"/><path class="c" d="M1191 852.3h-4.5v12.1h-2.2v-12h-4.4v-1.9h11zM1200.7 864.4l-.4-2a5.9 5.9 0 01-2.2 1.8 6.3 6.3 0 01-2.6.5 4.6 4.6 0 01-3.2-1 3.9 3.9 0 01-1.2-3.1q0-4.2 6.8-4.4l2.3-.1v-.9a3.5 3.5 0 00-.7-2.4 2.9 2.9 0 00-2.2-.8 9.2 9.2 0 00-4 1l-.6-1.5a10 10 0 012.2-1 9.8 9.8 0 012.5-.2 5.3 5.3 0 013.7 1 4.6 4.6 0 011.2 3.6v9.5zm-4.7-1.5a4.3 4.3 0 003-1 4 4 0 001.2-3v-1.3h-2.1a7.7 7.7 0 00-3.7.8 2.4 2.4 0 00-1 2.2 2.2 2.2 0 00.6 1.7 2.9 2.9 0 002 .6zM1207.2 850.5v5.8h7.8v-5.8h2v14h-2V858h-7.8v6.3h-2.1v-13.9zM1232 857.5a7.7 7.7 0 01-1.7 5.3 6 6 0 01-4.7 1.9 6.3 6.3 0 01-3.4-.9 5.8 5.8 0 01-2.2-2.5 8.8 8.8 0 01-.8-3.8 7.7 7.7 0 011.7-5.3 6 6 0 014.7-2 5.9 5.9 0 014.7 2 7.6 7.6 0 011.7 5.3zm-10.6 0a6.6 6.6 0 001 4 4.2 4.2 0 006.3 0 6.6 6.6 0 001.1-4 6.5 6.5 0 00-1-4 3.8 3.8 0 00-3.2-1.5 3.7 3.7 0 00-3.1 1.4 6.5 6.5 0 00-1.1 4zM1245.4 854a2.6 2.6 0 01-.8 2 4.3 4.3 0 01-2.2 1v.1a4.5 4.5 0 012.6 1 3 3 0 01.9 2.3 3.5 3.5 0 01-1.5 3 7 7 0 01-4.1 1h-6.2v-13.9h6.1q5.2 0 5.2 3.5zm-2 .2a1.5 1.5 0 00-.8-1.4 5.1 5.1 0 00-2.4-.5h-4v4h3.6a5.7 5.7 0 002.8-.5 1.7 1.7 0 00.8-1.6zm.4 6a1.8 1.8 0 00-.9-1.6 5.8 5.8 0 00-2.8-.5h-3.9v4.6h4q3.6 0 3.6-2.5zM1255.5 850.5h2.3l-6 6.7 6.5 7.2h-2.5l-6.3-7v7h-2.1v-13.9h2v6.8zM1267.9 864.4l-.5-2a5.8 5.8 0 01-2.1 1.8 6.3 6.3 0 01-2.6.5 4.6 4.6 0 01-3.3-1 3.9 3.9 0 01-1.1-3.1q0-4.2 6.7-4.4l2.4-.1v-.9a3.5 3.5 0 00-.7-2.4 2.9 2.9 0 00-2.3-.8 9.2 9.2 0 00-4 1l-.6-1.5a10 10 0 012.3-1 9.8 9.8 0 012.4-.2 5.3 5.3 0 013.7 1 4.6 4.6 0 011.2 3.6v9.5zm-4.8-1.5a4.3 4.3 0 003-1 4 4 0 001.2-3v-1.3h-2.1a7.7 7.7 0 00-3.6.8 2.4 2.4 0 00-1.1 2.2 2.2 2.2 0 00.7 1.7 2.9 2.9 0 001.9.6zM1279.4 850.5v8.8l-.1 2.3v.8l7.5-11.9h2.6v14h-2V854.1l.1-1.6-7.5 11.8h-2.6v-13.9zM1308.8 854a2.6 2.6 0 01-.8 2 4.3 4.3 0 01-2.2 1v.1a4.5 4.5 0 012.6 1 3 3 0 01.8 2.3 3.5 3.5 0 01-1.4 3 7 7 0 01-4.2 1h-6.1v-13.9h6.1q5.2 0 5.2 3.5zm-2 .2a1.5 1.5 0 00-.8-1.4 5.1 5.1 0 00-2.4-.5h-4v4h3.6a5.7 5.7 0 002.7-.5 1.7 1.7 0 00.8-1.6zm.3 6a1.8 1.8 0 00-.8-1.6 5.8 5.8 0 00-2.9-.5h-3.8v4.6h3.9q3.6 0 3.6-2.5zM1312.8 850.5v5.8h7.8v-5.8h2.1v14h-2V858h-7.9v6.3h-2v-13.9zM1331.5 864.7a6.4 6.4 0 01-4.8-2 7.3 7.3 0 01-1.8-5.1 8 8 0 011.6-5.4 5.5 5.5 0 014.5-2 5.2 5.2 0 014.1 1.8 6.6 6.6 0 011.5 4.5v1.3h-9.5a5.5 5.5 0 001.2 3.8 4.3 4.3 0 003.3 1.2 11.2 11.2 0 004.4-1v2a11.1 11.1 0 01-2 .7 11.8 11.8 0 01-2.5.2zm-.5-12.7a3.4 3.4 0 00-2.7 1.1 5 5 0 00-1.2 3h7.3a4.6 4.6 0 00-.9-3 3.1 3.1 0 00-2.5-1zM1350.8 869.2h-2v-4.8h-9.8v4.8h-2v-6.6h1a18.1 18.1 0 002.7-5.4 23.2 23.2 0 001-6.7h7v12.1h2zm-4-6.6v-10.4h-3.2a23.3 23.3 0 01-1 5.7 16 16 0 01-2.4 4.7zM1358.5 864.7a6 6 0 01-2.5-.5 4.7 4.7 0 01-2-1.6 18.8 18.8 0 010 2.3v5.8h-2v-20.2h1.7l.3 1.9a4.9 4.9 0 012-1.6 5.8 5.8 0 012.5-.6 5.1 5.1 0 014.2 2 10 10 0 010 10.6 5.2 5.2 0 01-4.2 1.9zm-.3-12.7a3.7 3.7 0 00-3.1 1.2 6 6 0 00-1 3.8v.5a7 7 0 001 4.2 3.7 3.7 0 003.1 1.2 3.3 3.3 0 002.8-1.4 7 7 0 001-4 6.7 6.7 0 00-1-4 3.4 3.4 0 00-2.8-1.5zM1372.2 864.7a6.4 6.4 0 01-4.8-2 7.3 7.3 0 01-1.8-5.1 8 8 0 011.6-5.4 5.5 5.5 0 014.5-2 5.2 5.2 0 014.1 1.8 6.6 6.6 0 011.6 4.5v1.3h-9.6a5.5 5.5 0 001.2 3.8 4.3 4.3 0 003.3 1.2 11.2 11.2 0 004.5-1v2a11.1 11.1 0 01-2.2.7 11.8 11.8 0 01-2.4.2zm-.5-12.7a3.4 3.4 0 00-2.7 1.1 5 5 0 00-1.2 3h7.3a4.6 4.6 0 00-.9-3 3.1 3.1 0 00-2.5-1zM1381.5 850.5v5.8h7.8v-5.8h2.1v14h-2.1V858h-7.8v6.3h-2.1v-13.9zM1396.3 850.5v8.8l-.1 2.3v.8l7.5-11.9h2.6v14h-2V854.1l.1-1.6-7.5 11.8h-2.6v-13.9zM1415.1 864.7a6.4 6.4 0 01-4.9-2 7.3 7.3 0 01-1.8-5.1 8 8 0 011.7-5.4 5.5 5.5 0 014.5-2 5.2 5.2 0 014 1.8 6.6 6.6 0 011.6 4.5v1.3h-9.6a5.5 5.5 0 001.3 3.8 4.3 4.3 0 003.3 1.2 11.2 11.2 0 004.4-1v2a11.2 11.2 0 01-2.1.7 11.8 11.8 0 01-2.4.2zm-.6-12.7a3.4 3.4 0 00-2.6 1.1 5 5 0 00-1.2 3h7.3a4.6 4.6 0 00-1-3 3.1 3.1 0 00-2.5-1zM1226.7 882.3q4 0 4-2.2 0-2-3.3-2a8.2 8.2 0 00-1.8.1 13.7 13.7 0 00-2 .7l-.8-1.7a11.4 11.4 0 014.7-1 6.4 6.4 0 013.8 1 3.1 3.1 0 011.4 2.7q0 2.4-2.6 3v.2a4.7 4.7 0 012.3 1.3 3.3 3.3 0 01.7 2.2 3.4 3.4 0 01-1.5 3 7.5 7.5 0 01-4.3 1 9.8 9.8 0 01-4.7-.8v-2a11 11 0 004.7 1.1 5 5 0 002.8-.6 2 2 0 001-1.8q0-2.4-4-2.4h-2v-1.8zM1243.6 890.4l-.4-2h-.1a5.9 5.9 0 01-2.1 1.8 6.3 6.3 0 01-2.6.5 4.6 4.6 0 01-3.3-1 3.9 3.9 0 01-1.1-3.1q0-4.2 6.7-4.4l2.4-.1v-.9a3.5 3.5 0 00-.7-2.4 2.9 2.9 0 00-2.3-.8 9.2 9.2 0 00-4 1l-.6-1.5a10 10 0 012.3-1 9.8 9.8 0 012.5-.2 5.3 5.3 0 013.6 1 4.6 4.6 0 011.2 3.6v9.5zm-4.8-1.5a4.3 4.3 0 003.1-1 4 4 0 001.1-3v-1.3h-2a7.7 7.7 0 00-3.7.8 2.4 2.4 0 00-1.1 2.2 2.2 2.2 0 00.7 1.7 2.9 2.9 0 002 .6zM1260 890.4h-2.1v-13.2l.1-3.1-.6.5-3 2.5-1.1-1.4 4.9-3.8h1.8zM1271.3 879a6.8 6.8 0 014.6 1.5 5 5 0 011.6 4 5.7 5.7 0 01-1.8 4.5 7.3 7.3 0 01-5 1.7 9.3 9.3 0 01-4.8-1v-2a7.3 7.3 0 002.2.8 10.9 10.9 0 002.6.4 5.2 5.2 0 003.5-1 3.8 3.8 0 001.2-3.1q0-4-4.8-4a18.9 18.9 0 00-3.2.4l-1-.7.6-8.6h9.2v1.9h-7.4l-.5 5.6a14.8 14.8 0 013-.3zM1292.1 888.4l.4-1.2.6-1.5 3.7-9.2h2.7v14h-1.8v-11.6l-.3.8-.7 2-3.6 8.7h-1.8l-3.6-8.8a26.2 26.2 0 01-1-2.7v11.5h-1.8v-13.9h2.6l3.6 8.9a32 32 0 011 3zM1304.4 876.5V888.4l7.4-11.9h2.7v14h-2V880.1l.1-1.6-7.5 11.8h-2.6v-13.9zM1319.5 876.5v5.8h7.8v-5.8h2v14h-2V884h-7.8v6.3h-2.1v-13.9zM1330 876.5h2.3l3.1 8a30.1 30.1 0 011.2 3.9h.1l.7-2.3 3.5-9.6h2.2l-6 15.8a8 8 0 01-2 3.4 4.4 4.4 0 01-3 1 8.5 8.5 0 01-1.8-.3v-1.6a7.3 7.3 0 001.5.1 3.2 3.2 0 003.1-2.4l.8-2z"/><path class="c" d="M1353.2 878.3h-4.5v12.1h-2.1v-12h-4.5v-1.9h11.1z"/></svg>