<svg width="140" height="44" xmlns="http://www.w3.org/2000/svg">
 <defs>
  <path d="m0,0l15.027,0l0,24l-15.027,0l0,-24z" id="a"/>
  <path d="m0,0.016l27,0l0,32.984l-27,0l0,-32.984z" id="c"/>
  <path d="m0,0l27,0l0,33.797l-27,0l0,-33.797z" id="e"/>
 </defs>
 <g>
  <title>background</title>
  <rect fill="none" id="canvas_background" height="46" width="142" y="-1" x="-1"/>
 </g>
 <g>
  <title>Layer 1</title>
  <!-- Generator: Sketch 50.2 (55047) - http://www.bohemiancoding.com/sketch -->
  <desc>Created with Sketch.</desc>

  <metadata id="svg_79">image/svg+xml</metadata>
  <defs>
   <style type="text/css"/>
  </defs>
  <!-- Generator: Sketch 46.2 (44496) - http://www.bohemiancoding.com/sketch -->
  <desc>Created with Sketch.</desc>

  <defs>
   <path id="svg_125" d="m0,0l15.027,0l0,24l-15.027,0l0,-24z"/>
   <path id="svg_124" d="m0,0.016l27,0l0,32.984l-27,0l0,-32.984z"/>
   <path id="svg_123" d="m0,0l27,0l0,33.797l-27,0l0,-33.797z"/>
  </defs>
  <g id="svg_134">
   <path id="svg_133" d="m77.50171,17.10266c0,-3.28377 0.05662,-6.34107 0.22647,-9.1719l-8.66235,1.64188l0,0.79263l0.84925,0.11323c0.62278,0.05662 1.0191,0.28308 1.24557,0.62278c0.22647,0.39632 0.39632,0.96248 0.50955,1.81173c0.11323,1.64188 0.22647,5.37858 0.16985,11.26672c0,5.83152 -0.05662,9.5116 -0.16985,10.92702c3.11392,0.6794 5.54843,0.96248 7.36017,0.96248c3.397,0 6.05798,-0.96248 7.98295,-2.94407c1.92497,-1.92497 2.94407,-4.64257 2.94407,-7.98295c0,-2.66098 -0.73602,-4.86903 -2.20805,-6.62415c-1.47203,-1.75512 -3.34038,-2.60437 -5.54843,-2.60437c-1.47203,0 -3.00068,0.39632 -4.69918,1.18895zm0.16985,17.43793c-0.11323,-1.81173 -0.22647,-7.24693 -0.22647,-16.13575c0.50955,-0.16985 1.18895,-0.28308 2.0382,-0.28308c1.3588,0 2.43452,0.6794 3.22715,2.09482c0.79263,1.41542 1.18895,3.11392 1.18895,5.26535c0,2.66098 -0.45293,4.81242 -1.3588,6.62415c-0.90587,1.75512 -2.0382,2.66098 -3.45362,2.66098c-0.45293,-0.11323 -0.90587,-0.16985 -1.41542,-0.22647zm-41.1037,-26.04366l-22.64666,0l0,1.13233l1.18895,0.11323c0.90587,0.16985 1.52865,0.50955 1.92497,1.0191c0.39632,0.56617 0.62278,1.47203 0.6794,2.7176c0.45293,6.1146 0.45293,11.83288 0,17.09823c-0.11323,1.24557 -0.3397,2.15143 -0.6794,2.7176c-0.39632,0.56617 -1.0191,0.90587 -1.92497,1.0191l-1.18895,0.16985l0,1.13233l14.6071,0l0,-1.13233l-1.52865,-0.11323c-0.90587,-0.11323 -1.52865,-0.50955 -1.92497,-1.0191c-0.39632,-0.56617 -0.62278,-1.47203 -0.6794,-2.7176c-0.16985,-2.26467 -0.28308,-4.86903 -0.28308,-7.75648l3.0573,0.05662c1.64188,0.05662 2.77422,1.30218 3.34038,3.79332l1.13233,0l0,-9.22852l-1.13233,0c-0.56617,2.43452 -1.64188,3.68008 -3.34038,3.7367l-3.0573,0.05662c0,-5.0955 0.11323,-8.71897 0.28308,-10.92702l4.47272,0c3.17053,0 5.32197,2.0382 6.56753,6.1146l1.3588,-0.39632l-0.22647,-7.58663zm-2.66098,17.43793c0,2.94407 0.84925,5.37858 2.49113,7.30355c1.64188,1.92497 4.0764,2.83083 7.1337,2.83083s5.54843,-0.96248 7.36017,-2.94407c1.81173,-1.92497 2.66098,-4.35948 2.66098,-7.30355s-0.84925,-5.37858 -2.49113,-7.30355c-1.64188,-1.92497 -4.0764,-2.83083 -7.1337,-2.83083s-5.54843,0.96248 -7.36017,2.94407c-1.81173,1.92497 -2.66098,4.35948 -2.66098,7.30355zm12.62552,-6.4543c0.6794,1.64188 0.96248,3.79332 0.96248,6.39768c0,6.00137 -1.24557,8.94543 -3.68008,8.94543c-1.24557,0 -2.20805,-0.84925 -2.88745,-2.54775c-0.6794,-1.6985 -0.96248,-3.84993 -0.96248,-6.39768c0,-5.94475 1.24557,-8.88882 3.68008,-8.88882c1.24557,-0.05662 2.20805,0.79263 2.88745,2.49113zm47.84108,13.75785c1.86835,1.86835 4.24625,2.83083 7.07708,2.83083c1.75512,0 3.28377,-0.3397 4.64257,-1.07572c1.3588,-0.6794 2.43452,-1.52865 3.17053,-2.54775l-0.56617,-0.6794c-1.24557,0.96248 -2.66098,1.41542 -4.30287,1.41542c-2.26467,0 -4.01978,-0.73602 -5.20873,-2.26467c-1.24557,-1.52865 -1.81173,-3.45362 -1.6985,-5.94475l12.11597,0c0,-2.7176 -0.6794,-4.92565 -2.09482,-6.68077c-1.41542,-1.6985 -3.397,-2.54775 -5.94475,-2.54775c-3.17053,0 -5.60505,1.0191 -7.36017,3.00068c-1.75512,1.98158 -2.60437,4.4161 -2.60437,7.30355c0,2.94407 0.90587,5.32197 2.77422,7.19032zm4.18963,-14.21078c0.62278,-1.3588 1.41542,-2.0382 2.49113,-2.0382c1.6985,0 2.54775,2.15143 2.54775,6.51092l-6.00137,0.11323c0.05662,-1.6985 0.3397,-3.22715 0.96248,-4.58595zm26.27013,-2.26467c-1.52865,-0.6794 -3.45362,-1.07572 -5.7749,-1.07572c-2.3779,0 -4.24625,0.62278 -5.66167,1.81173s-2.15143,2.66098 -2.15143,4.4161c0,1.52865 0.45293,2.7176 1.30218,3.56685c0.84925,0.84925 2.20805,1.58527 3.96317,2.20805c1.58527,0.56617 2.7176,1.13233 3.28377,1.64188c0.56617,0.56617 0.90587,1.18895 0.90587,2.0382c0,0.79263 -0.28308,1.52865 -0.90587,2.09482c-0.56617,0.62278 -1.3588,0.90587 -2.3779,0.90587c-2.49113,0 -4.35948,-1.81173 -5.66167,-5.4352l-0.96248,0.28308l0.22647,5.66167c2.0382,0.79263 4.30287,1.18895 6.794,1.18895c2.60437,0 4.58595,-0.56617 6.05798,-1.75512c1.47203,-1.13233 2.20805,-2.77422 2.20805,-4.81242c0,-1.3588 -0.3397,-2.49113 -1.07572,-3.34038c-0.73602,-0.84925 -1.92497,-1.58527 -3.62347,-2.26467c-1.86835,-0.6794 -3.17053,-1.30218 -3.84993,-1.86835c-0.6794,-0.56617 -1.0191,-1.24557 -1.0191,-2.09482s0.22647,-1.52865 0.73602,-2.09482s1.13233,-0.79263 1.92497,-0.79263c2.26467,0 3.90655,1.64188 4.92565,4.86903l0.96248,-0.28308l-0.22647,-4.86903zm-54.46523,-0.50955c-0.79263,-0.39632 -1.64188,-0.56617 -2.60437,-0.56617c-0.96248,0 -1.92497,0.39632 -3.00068,1.18895c-1.07572,0.79263 -1.86835,1.86835 -2.49113,3.34038l0.05662,-4.52933l-8.60573,1.6985l0,0.79263l0.84925,0.05662c1.07572,0.11323 1.6985,0.96248 1.81173,2.49113c0.3397,3.51023 0.3397,7.24693 0,11.2101c-0.11323,1.52865 -0.73602,2.32128 -1.81173,2.49113l-0.84925,0.11323l0,1.07572l12.00273,0l0,-1.07572l-1.52865,-0.11323c-1.07572,-0.11323 -1.6985,-0.96248 -1.81173,-2.49113c-0.3397,-3.28377 -0.39632,-6.794 -0.11323,-10.41747c0.3397,-0.56617 1.07572,-0.90587 2.20805,-1.0191c1.13233,-0.11323 2.43452,0.22647 3.79332,1.0191l2.09482,-5.26535z"/>
  </g>
 </g>
</svg>