<?xml version="1.0" encoding="utf-8"?>
<!-- Generator: Adobe Illustrator 19.0.1, SVG Export Plug-In . SVG Version: 6.00 Build 0)  -->
<svg version="1.1" id="svg2041" xmlns:svg="http://www.w3.org/2000/svg"
	 xmlns="http://www.w3.org/2000/svg" xmlns:xlink="http://www.w3.org/1999/xlink" x="0px" y="0px" viewBox="41 226.8 694.3 341.2"
	 style="enable-background:new 41 226.8 694.3 341.2;" width="106" xml:space="preserve">
<style type="text/css">
	.st0{fill:#0079C2;}
</style>
<g id="layer1" transform="translate(-8.479224,-404.6258)">
	<g id="g2058" transform="translate(7.081015,7.088444)">
		<path id="path26" class="st0" d="M259.6,845.2h43.2v14.1h-20.5v99.1h-22.6V845.2"/>
		<path id="path28" class="st0" d="M328.3,915.9l3.9-56.6h1.3l3.9,56.6H328.3z M303.3,958.4h22.2l2.1-30.1h10.7l2.1,30.1h22.2
			l-11.8-113.2h-35.6L303.3,958.4"/>
		<path id="path30" class="st0" d="M394.9,918.8v21.3c0,2.9,2.2,3.7,3.5,3.7c2.1,0,3.6-1.8,3.6-3.7v-26.4c0-3.5-0.6-7.4-9.1-7.4
			h-9.2V894h9.6c6.4,0,8.7-1.5,8.7-8.4v-22.5c0-1.9-1.5-3.7-3.6-3.7c-1.3,0-3.5,0.7-3.5,3.7v18.5h-22.6v-16.1
			c0-7.9,0.9-20.2,16.8-20.2h18.7c15.9,0,16.9,12.3,16.9,20.2v18.1c0,12.3-8.6,15.7-15.4,15.4v1.1c15.2-0.4,15.4,11.3,15.4,15.3
			v22.8c0,8-1,20.2-16.9,20.2H389c-15.9,0-16.8-12.2-16.8-20.2v-19.4H394.9"/>
		<path id="path32" class="st0" d="M439.5,845.2h52.4v113.2h-22.6v-99.1h-7.1v99.1h-22.6V845.2"/>
		<path id="path34" class="st0" d="M529.4,907.5v-48.2h3c2.4,0,4.2,2,4.2,5.7v36.8c0,3.6-1.8,5.7-4.2,5.7H529.4z M506.8,958.4h22.6
			v-38.5h13c15.8,0,16.8-12.2,16.8-20.2v-34.2c0-7.9-1-20.2-16.8-20.2h-35.6V958.4"/>
		<path id="path36" class="st0" d="M603.8,940.2c0,1.9-1.5,3.7-3.6,3.7c-1.3,0-3.5-0.8-3.5-3.7v-77.1c0-3,2.2-3.7,3.5-3.7
			c2.1,0,3.6,1.8,3.6,3.7V940.2z M574,938.2c0,8,1,20.2,16.8,20.2h18.8c15.8,0,16.8-12.2,16.8-20.2v-72.8c0-7.9-1-20.2-16.8-20.2
			h-18.8c-15.8,0-16.8,12.3-16.8,20.2V938.2"/>
		<path id="path38" class="st0" d="M700.2,845.2h29.5v113.2H707v-71h-0.8l-11.7,71h-18.1l-11.6-71H664v71h-22.6V845.2h29.4
			l14.8,79.6L700.2,845.2"/>
		<path id="path40" class="st0" d="M230.2,690.5c-6.9-30.3-24.3-55-26.7-59c-3.8,5.7-17.6,27.5-24.7,51.6c-7.7,27-8.8,50.9-6.2,74.4
			c2.6,23.6,12.6,47.8,12.6,47.8c5.3,12.6,13.2,26.3,18.4,32.9c7.6-9.8,24.9-39.2,30.4-77.4C237,739.5,237.1,720.8,230.2,690.5z
			 M203.5,830.6c-3.4-6.4-8.7-18.6-9.2-37.5c-0.1-18.2,7.2-33.9,9.3-37.1c1.9,3.2,8.2,16.9,8.9,35.5
			C213.1,809.7,207,824.1,203.5,830.6z M228.2,742c-0.3,11.6-1.6,23.8-3.4,31.2c0.6-12.6-0.9-30.3-3.8-44.3
			c-2.9-13.8-11.1-37-17.6-47.7c-6,10.2-13.5,30.3-17.4,47.6c-3.9,17.4-4,38.4-4,44.7c-1-5.3-3.6-24.3-2.9-43.3
			c0.6-15.7,4.3-31.9,6.3-39.3c7.7-24.8,16.4-40.6,18-43.1c1.6,2.5,12.6,22.1,18.3,42.6C227.3,710.8,228.5,730.5,228.2,742"/>
		<path id="path42" class="st0" d="M215.3,845.2h-52.7v35.4c0,0,0.1-0.1,0.1-0.1c12.4-12.4,32.6-12.4,45,0
			c12.4,12.3,12.4,32.5,0,44.9c-0.1,0.1-0.1,0.1-0.2,0.2l0,0c-0.1,0-0.1,0.1-0.2,0.2c-12.4,12.2-28.6,18.4-44.8,18.4
			c-16.3,0-32.5-6.1-44.9-18.6c-21.9-21.8-24.5-55.7-7.8-80.4c2.2-3.3,4.8-6.5,7.8-9.5c12.4-12.4,28.7-18.6,44.9-18.6v-85
			c-62.5,0-113.1,50.6-113.1,113s50.6,113.1,113.1,113.1c32.6,0,61.9-13.8,82.6-35.8v-77.3H215.3"/>
	</g>
</g>
</svg>
