<?xml version="1.0" encoding="utf-8"?>
<!-- Generator: Adobe Illustrator 21.0.2, SVG Export Plug-In . SVG Version: 6.00 Build 0)  -->
<svg version="1.1" id="Слой_1" xmlns="http://www.w3.org/2000/svg" xmlns:xlink="http://www.w3.org/1999/xlink" x="0px" y="0px"
	 viewBox="0 0 200 200" style="enable-background:new 0 0 200 200;" xml:space="preserve">
<style type="text/css">
	.st0{fill:#161614;}
	.st1{fill:#FFFFFF;}
</style>
<rect y="0" class="st0" width="200" height="200"/>
<path class="st1" d="M48.6,115.1c-0.5-0.5-0.5-0.9,0-1.4c0.9-0.9,2.1-1.3,3.5-1.1c1.4,0.2,2.2,0.5,2.5,0.7c1.7,0.7,3.5,2.3,5.5,4.8
	c2,2.5,3.6,4.2,4.8,5.1c5.7,4.7,11.5,5.1,17.4,1.1c0.5-1.7,1.2-3.1,2.3-4.3c1.1-1.2,2.1-2,3-2.5c0.9-0.5,2.6-1.2,5-2.1
	c-7.8-0.7-14.1-2.1-19-4.1c-4.8-2-8.7-4.5-11.5-7.6c-3.8-4.3-6.1-9.8-6.9-16.7c-0.8-6.9-0.3-13.1,1.6-18.8c1.4-3.5,3.4-6.7,6-9.6
	c-1.9-5.9-1.5-12.6,1.1-20.2c7.6,0.5,14.4,3.1,20.6,7.8c11.8-3.1,24.1-3.2,36.9-0.4c1.7-1.2,4.2-2.7,7.6-4.4c3.4-1.8,7.7-2.8,12.9-3
	c0.9,2.6,1.6,5.7,1.9,9.2c0.4,3.5,0.2,6.9-0.5,9.9c5.4,5.7,8.3,13.2,8.5,22.7c0,7.6-1.3,13.8-3.9,18.8c-2.6,5-7.2,9.1-13.8,12.4
	c-4.5,2.1-10.4,3.4-17.7,3.9c3.3,1.7,5.7,3.4,7.3,5.1c1.5,1.8,2.5,4.5,3,8.3v11.2l0.4,10.8c0.7,1.2,1.5,2.2,2.5,3
	c0.9,0.8,1.8,1.4,2.5,1.8c0.7,0.4,0.9,0.9,0.7,1.6c-0.2,0.7-1.2,1.1-2.8,1.1c-4,0-7.2-1.4-9.6-4.3c-0.7-1.2-1.1-2.6-1.1-4.3v-17
	c0-1.9-0.5-3.2-1.4-4.1c-0.9-0.8-1.9-1.4-2.8-1.6v22.3c0,4,0.5,6.6,1.4,7.8c0.9,1.2,1.5,2.4,1.8,3.5c0.2,0.2,0.1,0.4-0.5,0.5
	c-0.6,0.1-1.6-0.1-3-0.5c-3.1-0.7-5.2-2.3-6.4-4.8c-1.2-2.5-1.8-5.1-1.8-8v-22h-4.6v22c0,2.8-0.6,5.6-1.8,8.2
	c-1.7,3.3-4.7,5.1-9.2,5.3c-0.7-0.2-1.1-0.5-1.1-0.7c0.2-0.2,0.9-1.4,2.1-3.5c0.2-0.5,0.5-1.4,0.9-2.8c0.4-1.4,0.5-3.1,0.5-5v-22.3
	c-0.9,0.2-1.8,0.8-2.7,1.6c-0.8,0.8-1.2,2.2-1.2,4.1v17c0,1.7-0.4,3.1-1.1,4.3c-2.1,2.8-5.3,4.3-9.6,4.3c-1.7,0-2.6-0.4-2.8-1.1
	c-0.2-0.5-0.2-0.9,0.2-1.2c0.4-0.4,0.9-0.8,1.6-1.2c0.7-0.5,1.2-0.8,1.4-1.1c0.9-0.7,1.7-1.7,2.1-2.8c0.7-0.9,0.9-3.4,0.5-7.4
	s-0.4-6.6-0.2-7.8c-6.1,2.1-12.4,1.1-18.8-3.2c-1.9-1.9-3.8-4.6-5.7-8.2C55.7,121.7,52.9,118.6,48.6,115.1L48.6,115.1z"/>
</svg>
