<svg width="140" height="44" xmlns="http://www.w3.org/2000/svg">
 <defs>
  <path d="m0,0l15.027,0l0,24l-15.027,0l0,-24z" id="a"/>
  <path d="m0,0.016l27,0l0,32.984l-27,0l0,-32.984z" id="c"/>
  <path d="m0,0l27,0l0,33.797l-27,0l0,-33.797z" id="e"/>
 </defs>
 <g>
  <title>background</title>
  <rect fill="none" id="canvas_background" height="46" width="142" y="-1" x="-1"/>
 </g>
 <g>
  <title>Layer 1</title>
  <!-- Generator: Sketch 50.2 (55047) - http://www.bohemiancoding.com/sketch -->
  <desc>Created with Sketch.</desc>

  <metadata id="svg_79">image/svg+xml</metadata>
  <defs>
   <style type="text/css"/>
  </defs>
  <!-- Generator: Sketch 46.2 (44496) - http://www.bohemiancoding.com/sketch -->
  <desc>Created with Sketch.</desc>

  <defs>
   <path id="svg_125" d="m0,0l15.027,0l0,24l-15.027,0l0,-24z"/>
   <path id="svg_124" d="m0,0.016l27,0l0,32.984l-27,0l0,-32.984z"/>
   <path id="svg_123" d="m0,0l27,0l0,33.797l-27,0l0,-33.797z"/>
  </defs>
  <g id="svg_129">
   <g transform="matrix(0.957399, 0, 0, 0.957399, -21.3602, -5.86051)" id="svg_127">
    <title>background</title>
    <rect x="24.42548" y="6.10021" width="142" height="46" id="svg_122" fill="none"/>
   </g>
   <g transform="matrix(0.957399, 0, 0, 0.957399, -21.3602, -5.86051)" id="svg_128">
    <title>Layer 1</title>
    <!-- Generator: Sketch 50.2 (55047) - http://www.bohemiancoding.com/sketch -->
    <desc>Created with Sketch.</desc>
    <metadata id="svg_121">image/svg+xml</metadata>
    <defs transform="translate(0, 2.74581) translate(0.209404) translate(-38.7416, -15.7466) translate(63.9577) translate(0, 20.101)">
     <style type="text/css"/>
    </defs>
    <g id="svg_116">
     <g id="svg_118" transform="matrix(0.920694, 0, 0, 0.920694, -9.6662, -7.50202)">
      <path d="m184.12178,32.57142c0.00024,-0.96302 -0.78129,-1.74432 -1.74419,-1.74432c-0.95658,0.00012 -1.74408,0.78762 -1.74396,1.7442c0,0.9567 0.78774,1.74372 1.74408,1.74396c0.95717,0.00036 1.74372,-0.78703 1.74407,-1.74384zm-3.78371,-0.00012c0,-1.11933 0.92007,-2.03975 2.03952,-2.03975c1.12481,0 2.03951,0.91434 2.03975,2.03927c0.00024,1.11909 -0.92055,2.03963 -2.0394,2.03999c-1.11944,0.00036 -2.03987,-0.92018 -2.03987,-2.03951z" id="svg_120" fill-rule="nonzero" fill="#7f7f7f"/>
      <path d="m182.31769,31.07278c0.0536,0.49982 0.45591,0.21585 0.62952,0.07624c0.0634,-0.05023 0.14116,-0.1427 0.1834,-0.16871c0.0276,-0.01623 0.0681,-0.00477 0.0844,0.02923c0.0162,0.05023 0.0228,0.11359 -0.008,0.20606c-0.0374,0.1087 -0.10058,0.21418 -0.13626,0.27097c-0.0925,0.14927 -0.18339,0.28064 -0.29209,0.41857c-0.17683,0.22074 -0.40079,0.3959 -0.58574,0.61175c-0.28398,0.33099 -0.44458,0.84215 -0.357,1.27373c0.0228,0.11025 0.0747,0.24985 0.18017,0.3082c0.62631,0.34733 1.08544,-1.14224 0.87294,-1.58193c-0.0292,-0.0568 -0.0876,-0.15905 -0.1655,-0.14437c-0.39268,0.07302 -0.5744,1.3483 -0.32944,1.44077c-0.0119,0.15094 -0.2514,0.24341 -0.3212,-0.03568c-0.0228,-0.09736 -0.0276,-0.19962 -0.0243,-0.3002c0.0119,-0.42514 0.35211,-1.06767 0.74144,-1.26395c0.17695,-0.09092 0.42681,-0.08925 0.52572,0.1136c0.34889,0.72199 -0.59385,2.05574 -1.40999,1.93403c-0.39423,-0.06002 -0.53705,-0.43802 -0.50627,-0.79669c0.0243,-0.29519 0.14772,-0.57595 0.31811,-0.81614c0.34399,-0.48348 0.88582,-0.62463 1.14868,-1.0043c0,0 0.01,-0.01456 0.0119,-0.02267c0.004,-0.01194 -0.01,-0.02602 -0.0277,-0.01194c-0.0291,0.02602 -0.18005,0.10393 -0.28553,0.11682c-0.21251,0.02434 -0.32777,-0.26608 -0.36345,-0.42669c-0.008,-0.03567 -0.01,-0.06324 -0.0438,-0.01789c-0.1038,0.13471 -0.18339,0.88761 -0.28887,0.92973l-0.41212,0.16394c0,0 -0.0178,0.00835 -0.0243,-0.01623c-0.047,-0.17528 0.37812,-0.78368 0.4966,-0.98819c0.0161,-0.0259 0.11347,-0.21573 0.13137,-0.23041c0.0308,-0.02589 0.21907,-0.07457 0.25797,-0.06813l-0.00066,0.00048z" id="svg_119" fill="#7f7f7f"/>
     </g>
     <path d="m44.55984,34.27821l-5.22574,0l-3.20053,-5.3067l-1.0399,1.08197l0,4.22473l-4.36843,0l0,-13.35112l4.36843,0l0,4.3091l3.74564,-4.3091l5.12346,0l-4.80378,4.97966l5.40085,8.37146zm5.84906,-4.95308c0,-0.61047 -0.14325,-1.16403 -0.43009,-1.65432c-0.28672,-0.49029 -0.72933,-0.73702 -1.33397,-0.73702c-0.53929,0 -0.9475,0.24674 -1.22182,0.74021c-0.27431,0.49655 -0.41141,1.04704 -0.41141,1.65114c0,0.64848 0.14644,1.26213 0.43953,1.8347c0.28981,0.57565 0.73856,0.86346 1.34013,0.86346c0.57982,0 0.9943,-0.27837 1.24368,-0.8382c0.24937,-0.55983 0.37395,-1.17985 0.37395,-1.85997zm3.02982,3.00807c-1.0322,1.53063 -2.80143,2.24688 -4.6313,2.24688c-1.88578,0 -3.70335,-0.71021 -4.75731,-2.3017c-0.96673,-1.45998 -1.09043,-3.84056 -0.27607,-5.39832c0.62651,-1.19885 1.77483,-2.06539 3.09146,-2.41748c1.4502,-0.40251 3.01982,-0.3155 4.41214,0.25882c1.30201,0.53501 2.27061,1.63576 2.69235,2.94425c0.46051,1.42868 0.29617,3.44036 -0.53127,4.66756l0,-0.00001zm33.8532,-3.98744c-0.13666,-0.63584 -0.36143,-1.07659 -0.67144,-1.32223c-0.31287,-0.24926 -0.7078,-0.37208 -1.19083,-0.37208c-0.46788,0 -0.83853,0.1193 -1.11196,0.36121c-0.27344,0.2385 -0.48008,0.68287 -0.62289,1.3331l3.59712,0zm3.73697,1.88557l-7.2963,0c0,0.30056 0.05163,0.56433 0.15489,0.79414c0.31398,0.69902 0.88203,1.17085 1.6953,1.17085c0.59728,0 1.28608,-0.24048 1.41451,-0.88918l3.73686,0c-0.14183,0.92049 -0.72934,1.73265 -1.48559,2.26633c-0.76295,0.53676 -1.69991,0.83578 -2.62501,0.94135c-1.18644,0.14577 -2.55909,0.10612 -3.65787,-0.35263c-1.27828,-0.53127 -2.23282,-1.51349 -2.75254,-2.781c-0.47744,-1.23544 -0.48392,-2.60578 -0.0212,-3.85112c0.47996,-1.2919 1.46811,-2.29105 2.74947,-2.82088c1.55831,-0.64156 3.74004,-0.59806 5.24683,0.15325c1.33694,0.66419 2.24886,1.79648 2.62797,3.22559c0.18708,0.7189 0.25815,1.40769 0.21268,2.14329l0,0.00001zm10.46651,2.12043c-0.7179,1.36848 -2.04376,2.22326 -3.64193,2.22326c-1.14777,0 -1.90282,-0.37307 -2.67851,-1.16919l0,4.18639l-3.89264,0l0,-13.00947l3.44674,0l0,1.45054c0.74768,-1.48976 2.59809,-2.03101 4.09103,-1.65521c1.62653,0.4057 2.722,1.77329 3.11189,3.3104c0.3646,1.42868 0.23817,3.38697 -0.43657,4.66328l0,-0.00001l-0.00001,0.00001zm-3.17066,-3.16318c0,-0.41119 -0.13633,-0.86007 -0.4124,-1.34354c-0.27596,-0.48336 -0.67595,-0.72505 -1.19688,-0.72505c-0.51774,0 -0.91773,0.22598 -1.19676,0.6811c-0.27915,0.45206 -0.41867,0.91346 -0.41867,1.38749c0,0.5808 0.10854,1.12383 0.32561,1.62608c0.22005,0.50226 0.64805,0.75339 1.28982,0.75339c0.6264,0 1.04814,-0.26058 1.27444,-0.78163c0.20488,-0.50292 0.33484,-1.05286 0.33484,-1.59785l0,0.00001zm12.18159,4.97801c-1.51261,0.52972 -3.56844,0.61102 -5.07435,-0.0156c-0.94828,-0.3945 -1.78879,-1.06023 -2.31961,-1.94544c-0.51886,-0.85017 -0.78844,-1.82965 -0.78844,-2.8267c0,-0.66408 0.13973,-1.31662 0.37449,-1.93621c0.54401,-1.39319 1.48481,-2.19261 2.84308,-2.7464c1.55446,-0.63386 3.86341,-0.6108 5.33932,0.19236c1.40659,0.76547 2.14296,1.81965 2.33631,3.37324l-3.98316,0c-0.07008,-0.47788 -0.20487,-0.77328 -0.40185,-1.02529c-0.55785,-0.71428 -1.82064,-0.36527 -2.22371,0.33957c-0.51412,0.89939 -0.59915,2.22788 -0.27398,3.21372c0.21444,0.6498 0.92026,1.20073 1.60587,1.20073c0.972,0 1.1737,-0.65453 1.42757,-1.46812l3.84925,0c-0.04032,1.62675 -1.01298,3.04938 -2.71081,3.64414l0.00002,0zm9.81123,-3.70083c0,-0.18049 -0.01626,-0.32869 -0.04889,-0.44151c-0.26706,0.14819 -0.68407,0.27717 -1.25082,0.38669c-0.43173,0.07888 -0.89082,0.17534 -1.27686,0.3868c-0.54719,0.27058 -0.51764,1.04649 -0.03911,1.35991c0.55368,0.33308 1.48229,0.30562 1.94786,-0.16105c0.44305,-0.42229 0.66782,-0.93136 0.66782,-1.53085l0,0.00001zm4.33085,3.81244l-3.98448,0l-0.15138,-1.02693c-0.29067,0.37539 -0.9396,0.68463 -1.59499,0.93696c-0.31946,0.12304 -0.64782,0.22038 -0.98387,0.28233c-0.33605,0.05899 -0.6933,0.09008 -1.0656,0.09008c-0.6721,0 -1.28674,-0.11788 -1.84371,-0.35373c-0.55708,-0.23586 -0.97783,-0.60509 -1.26851,-1.10153c-0.26035,-0.54609 -0.39053,-1.09845 -0.39053,-1.66311c0,-0.71373 0.33243,-1.30223 0.78931,-1.82976c0.26047,-0.30089 0.51555,-0.46996 0.97563,-0.64671c0.21796,-0.08371 0.43349,-0.15644 0.64485,-0.21719c0.20938,-0.06019 0.40778,-0.11754 0.59641,-0.14588l1.6318,-0.24509c0.69253,-0.10404 1.36243,-0.19379 1.65849,-0.29167c0.18214,-0.06031 0.39702,-0.25718 0.50303,-0.38131c0.1059,-0.12403 0.0903,-0.25442 0.0903,-0.38779c0,-0.18314 -0.08778,-0.33517 -0.2664,-0.4592c-0.17851,-0.12414 -0.43294,-0.18621 -0.76284,-0.18621c-0.39658,0 -0.88961,0.059 -1.12876,0.17687c-0.23916,0.11788 -0.39362,0.35374 -0.46623,0.70429l-3.69083,0c0.12414,-0.63607 0.10162,-1.00738 0.282,-1.39584c0.17984,-0.38723 0.46327,-0.71977 0.85073,-0.99595c0.38746,-0.27607 0.9196,-0.49072 1.60147,-0.63299c0.32924,-0.06867 0.72065,-0.11656 1.16557,-0.15204c0.4481,-0.03581 0.94454,-0.0558 1.49547,-0.0558c1.34112,0 2.34564,0.15951 3.01532,0.47776c0.66836,0.31781 1.10438,0.57389 1.30784,1.05143c0.20224,0.47502 0.33901,1.09219 0.40262,1.84931l0,5.12588c0,0.52752 0.19675,0.9185 0.58729,1.17293l0,0.30089zm10.8274,0l-3.84364,0l0,-3.62359l-2.84669,0l0,3.62359l-3.80662,0l-0.00368,-9.54427l0.00368,-0.14589l3.80662,0l0,3.2469l2.80373,0l0,-3.2469l3.8866,0l-0.00368,9.51649l0.00368,0.17368l0,-0.00001zm10.68019,-6.83424l-3.30974,0l0,6.83424l-3.85551,0l0,-6.83424l-3.33763,0l0,-2.85593l10.50288,0l0,2.85593zm12.48468,3.73334c0,0.85116 -0.40559,1.59895 -1.05693,2.1323c-0.85698,0.7088 -2.04222,0.9686 -3.13023,0.9686l-5.94968,0l0,-6.83424l-2.22239,0l0,-2.85593l5.932,0l0,3.40103l2.02926,0c1.12965,0 2.38211,0.22092 3.27755,0.96288c0.67319,0.55774 1.12042,1.33782 1.12042,2.22535l0,0.00001zm-3.83199,0.00989c0,-0.61222 -0.33891,-0.86907 -0.92115,-0.93883c-0.11831,0 -0.3523,-0.00989 -0.69879,-0.02472c-0.34648,-0.01549 -0.81074,-0.02165 -0.9753,-0.02165l0,1.8715l0.96376,0.01857c0.26278,0.00552 0.47941,-0.00552 0.64683,-0.01857c0.5919,-0.04394 0.98464,-0.20477 0.98464,-0.88632l0,0.00001l0.00001,0.00001zm-93.12626,3.09091l-1.86821,0l-2.04134,-6.47326l0.31528,2.53723l0,3.93603l-3.40882,0l0,-9.74598l4.37182,0l1.69716,5.38349l1.69717,-5.38349l4.37193,0l0,9.74598l-3.40894,0l0,-3.93603l0.31529,-2.53723l-2.04134,6.47326zm12.76569,0l-1.86821,0l-2.04133,-6.47326l0.31528,2.53723l0,3.93603l-3.40894,0l0,-9.74598l4.37194,0l1.69716,5.38349l1.69716,-5.38349l4.37182,0l0,9.74598l-3.40882,0l0,-3.93603l0.31528,-2.53723l-2.04133,6.47326l-0.00001,0z" id="svg_117" fill-rule="nonzero" fill="#000000"/>
    </g>
   </g>
  </g>
 </g>
</svg>