<?xml version="1.0" encoding="utf-8"?>
<!-- Generator: Adobe Illustrator 19.0.1, SVG Export Plug-In . SVG Version: 6.00 Build 0)  -->
<svg version="1.1" id="Layer_1" xmlns="http://www.w3.org/2000/svg" xmlns:xlink="http://www.w3.org/1999/xlink" x="0px" y="0px"
	 viewBox="-217 344.3 175.7 105.7" width="100" style="enable-background:new -217 344.3 175.7 105.7;" xml:space="preserve">
<style type="text/css">
	.st0{fill:#7BB51C;}
</style>
<g>
	<polygon class="st0" points="-198.8,450 -60.3,450 -129.2,381.1 	"/>
	<polygon points="-201.5,446.6 -190.7,436.1 -194.3,432.4 -201,439 -213,426.8 -217,430.7 	"/>
	<polygon points="-188.3,433.7 -177.2,422.9 -180.3,419.8 -187.3,426.6 -190.7,423.2 -185,417.7 -188.2,414.4 -193.9,419.9 
		-196.7,417 -189.9,410.3 -193,407.2 -204,418 	"/>
	<path d="M-152.1,382.5c-4.5-4.6-12.2-4-15.9-0.4c-3.7,3.6-5.6,10.9-0.4,16.3c5.8,5.9,12.7,3.8,16.4,0.1
		C-146.5,393.2-148.5,386.3-152.1,382.5z M-155.4,395.4c-2.5,2.4-5.5,1.8-8.9-1.8c-2.9-3-2.7-6-0.6-8c1.4-1.4,4.4-2.7,7.9,0.9
		C-153,390.6-152.9,393-155.4,395.4z"/>
	<polygon points="-139.7,386.3 -135.6,382.3 -141.7,376 -145.4,360.8 -150.1,365.3 -147.6,374 -155.9,371 -160.3,375.3 
		-146.3,379.8 	"/>
	<path d="M-161.4,407.6c0,0-9.9-3.4-10.4-3.3c-0.2,0,2.1-6.1-3-8.8c0,0-3.8-2.1-7.6,1.4l-8.1,8l15.7,15.8l4.1-4l-8.5-8.7l13.7,3.6
		L-161.4,407.6z M-176.8,405.4c-2.3,2.2-2.6,2.4-2.6,2.4s-3.6-3.7-3.7-3.8c-0.1-0.1,2.6-2.5,3-2.9c0.2-0.2,1.9-1.3,3.3,0.2
		C-176.9,401.3-174.5,403.2-176.8,405.4z"/>
	<polygon points="-140.9,363.8 -144.6,360.1 -128.7,344.4 -123.5,349.6 -129.2,360.9 -117.6,355.6 -112.6,360.6 -128.5,376.3 
		-132.3,372.5 -123.9,364.2 -135.4,369.4 -137.7,367 -132.4,355.6 	"/>
	<polygon points="-113.4,391.5 -124.4,380.4 -108.6,364.7 -97.6,375.8 -100.8,379 -107.7,372 -110.3,374.6 -104.8,380.1 
		-108.1,383.4 -113.6,377.9 -117,381.4 -110.2,388.2 	"/>
	<polygon points="-77.3,396.3 -73.2,400.4 -85.2,412.3 -78.4,419.1 -82.3,422.9 -93.1,412 	"/>
	<polygon points="-79.5,425.8 -63.6,410.1 -59.6,414.1 -75.5,429.8 	"/>
	<polygon points="-68.3,437.1 -72,433.3 -56.1,417.6 -50.7,423 -55.4,439.4 -44.9,429 -41.3,432.6 -57.1,448.3 -61.8,443.5 
		-57.7,426.4 	"/>
	<path d="M-84.4,389.1l-9.6-9.7l-15.9,15.7l4.1,4.1l8.6-8.6l-3.1,14.2l4.2,4.2c0,0,3.3-10.1,3.4-10.6c0,0,3.6,2,7.5-1.4
		C-85.2,397-81.5,393.4-84.4,389.1z M-90.3,393.7c0,0-2,1.4-3.8-0.4l-2.8-2.9c0,0,3.4-3.3,3.8-3.8c0,0,2.6,2.6,2.9,2.9
		C-89.8,389.8-87.8,391.4-90.3,393.7z"/>
</g>
</svg>
