<svg xmlns="http://www.w3.org/2000/svg" viewBox="0 0 436.67 119.5"><defs><style>.cls-1{fill:#0097a7;fill-rule:evenodd;}</style></defs><title>TrueConf</title><g id="Слой_2" data-name="Слой 2"><g id="Слой_1-2" data-name="Слой 1"><path class="cls-1" d="M361.75,41.23a19.79,19.79,0,0,0-5.35-3.77,19.35,19.35,0,0,0-6.73-1.19,17.82,17.82,0,0,0-6.74,1.19,15.17,15.17,0,0,0-5.35,3.77,20.89,20.89,0,0,0-3.77,5.54,20.49,20.49,0,0,0-1.19,6.94V89a18.55,18.55,0,0,0,1.19,6.73,18.15,18.15,0,0,0,3.77,5.55,12.63,12.63,0,0,0,5.35,3.57,14.65,14.65,0,0,0,6.74,1.39,15.81,15.81,0,0,0,6.73-1.39,15.61,15.61,0,0,0,5.35-3.57,18.15,18.15,0,0,0,3.77-5.55A18.61,18.61,0,0,0,366.91,89V53.71a20.67,20.67,0,0,0-1.39-6.94A20.89,20.89,0,0,0,361.75,41.23Zm-6.34,49a5.38,5.38,0,0,1-5.74,5.74,5.5,5.5,0,0,1-5.75-5.74V52.52c0-3.37,2.77-5.15,5.75-5.15,2.77,0,5.74,1.78,5.74,5.15Z"/><path class="cls-1" d="M310.23,13.28c-9.91.2-16.05,7.93-16.05,17.44V89c0,11.29,6.93,17.24,16.05,17.24,10.7,0,17-5,17-17.24V71.15H316V90.37c0,6.74-10.51,6.54-10.51,0V29.53c.2-6.54,10.31-6.54,10.51,0V48.16h11.29V30.72C327.27,20.81,321.33,13.08,310.23,13.28Z"/><path class="cls-1" d="M283.67,41.23a18.15,18.15,0,0,0-5.55-3.77,18.55,18.55,0,0,0-6.73-1.19,19.36,19.36,0,0,0-6.74,1.19,19.94,19.94,0,0,0-5.35,3.77,16.45,16.45,0,0,0-3.57,5.54,20.67,20.67,0,0,0-1.39,6.94V89a18.61,18.61,0,0,0,1.39,6.73,14.74,14.74,0,0,0,3.57,5.55,17.4,17.4,0,0,0,12.09,5,15.21,15.21,0,0,0,6.73-1.39,15.55,15.55,0,0,0,9.12-9.12A15.21,15.21,0,0,0,288.63,89V85.22h-11.5v4.36c0,4-2.77,6-5.74,5.75a5.46,5.46,0,0,1-5.55-5.75V78.29h22.79V53.71a16.1,16.1,0,0,0-1.39-6.94A14.7,14.7,0,0,0,283.67,41.23Zm-6.54,27.15H265.84V51.93c-.2-3.37,2.77-5.16,5.55-5.16,3,0,5.74,1.79,5.74,5.16Z"/><path class="cls-1" d="M237.1,94.73h-1.78a29,29,0,0,1-4.17,0c-4.55-.19-5.35-3.76-5.54-8.91V36.27h-11.5V89.18a15.56,15.56,0,0,0,1.39,6.54,20.18,20.18,0,0,0,3.76,5.36,15.39,15.39,0,0,0,5.55,3.76,14.36,14.36,0,0,0,6.54,1.39H248.4v-70H237.1Z"/><path class="cls-1" d="M389.1,36.27H372.26v70h11.29V47.57c9.72-.4,11.1,1.19,11.1,8.72v49.94h11.7V53.31C406.35,43.6,399.21,36.27,389.1,36.27Z"/><path class="cls-1" d="M197.07,37.66a14.78,14.78,0,0,0-5.35,3.57A22.5,22.5,0,0,0,188,46.77a19.54,19.54,0,0,0-1.39,6.74v52.72h11.3V56.88c0-7.73,3-9.51,11.49-9.11V36.27h-5.74A14.94,14.94,0,0,0,197.07,37.66Z"/><polygon class="cls-1" points="191.72 13.28 153.27 13.28 153.27 24.77 166.75 24.77 166.75 106.23 178.24 106.23 178.24 24.77 191.72 24.77 191.72 13.28"/><path class="cls-1" d="M431.91,24.57h4.76V13.28h-5.75a15.67,15.67,0,0,0-6.74,1.39,15.92,15.92,0,0,0-5.35,3.56,15.07,15.07,0,0,0-3.57,5.55,17.56,17.56,0,0,0-1.38,6.54v5.75h-5.55V47.56h5.55v58.67h11.49V47.56h7.53V36.07h-7.53v-5C425.37,26.16,427.35,25,431.91,24.57Z"/><path class="cls-1" d="M135.43,60.25c-4.16-2.38-10.1-6-11.69-7.73,2.58-6.94,4.76-13.87,4.76-20.81,0-14.07-8.13-18.43-16.85-18.43S95,17.44,95,31.71c0,6.94,2.37,15.85,4.36,20.81a14.74,14.74,0,0,1-4,3A95.89,95.89,0,0,1,82.32,45.38c3-7.92,5.55-16.25,5.55-24.57C87.87,2.77,76,0,69,0S50.22,2.77,50.22,20.81c0,8.12,2.18,16.65,5.55,24.57A105.43,105.43,0,0,1,42.69,55.49a13.75,13.75,0,0,1-4-3C41.3,46,43.28,36.66,43.28,31.71c0-13.28-7.13-18.43-16.84-18.43-9.52,0-16.65,5-16.85,18.43,0,5.55,2,12.68,4.76,20.81-4,3.56-9.32,6.14-11.7,7.73A6.24,6.24,0,0,0,.47,61.83a5.39,5.39,0,0,0-.19,4C10.18,98.69,36,119.5,69,119.5c16.45,0,31.71-5.15,43.8-15.06,11.5-9.12,20-22.59,25-38.64C138.61,62,137.42,61.44,135.43,60.25ZM31,54.7c.4.79.8,1.58,5,4.95a48.51,48.51,0,0,1-4.16,2.58,4.16,4.16,0,0,0-2,3.57V98.69c-10.9-8.92-17.24-19.82-22-32.89,2.18-1.39,6.73-4.17,9.11-5.95a21.76,21.76,0,0,0,5.16-5.15,3.26,3.26,0,0,0,0-2.38c-2.58-6.14-5.16-13.67-5.16-20.61,0-4,0-11.3,9.52-11.3,9.71,0,9.71,7.53,9.71,11.3C36,39,33.57,46,31,52.32A2.43,2.43,0,0,0,31,54.7Zm70.16,49.74c-10.5,6.14-21.6,7.93-32.11,7.93-10.9.2-21-1.59-31.9-7.93V67.78c9.11-6,18.43-12.09,26.35-19.82.6-.6.2-2,0-2.58-3.36-7.53-5.94-15.85-5.94-24.57,0-4.56,0-13.48,11.49-13.68,11.7,0,11.7,9.12,11.7,13.68,0,8.72-3.37,16.65-5.95,24.57a2.43,2.43,0,0,0,0,2.58C82.32,56.28,92,61.63,101.15,67.78Zm7.13-5.75V65.8a3.76,3.76,0,0,0-2-3.57,47,47,0,0,1-4.16-2.58c4.36-3.37,4.56-4.16,5.15-4.95a3.08,3.08,0,0,0,0-2.38C104.52,46,102.14,39,102.14,31.71c0-3.77,0-11.3,9.51-11.3s9.52,7.34,9.52,11.3c0,6.94-2.38,14.47-5.16,20.61a3.21,3.21,0,0,0,0,2.38,27.57,27.57,0,0,0,5.16,5.15c2.57,1.78,6.93,4.56,9.11,5.95C125.72,78.87,119.38,89.77,108.28,98.69Z"/></g></g></svg>