<?xml version="1.0" encoding="utf-8"?>
<!-- Generator: Adobe Illustrator 19.0.1, SVG Export Plug-In . SVG Version: 6.00 Build 0)  -->
<svg version="1.1" id="Layer_1" xmlns="http://www.w3.org/2000/svg" xmlns:xlink="http://www.w3.org/1999/xlink" x="0px" y="0px"
	 viewBox="0 0 135 40" style="enable-background:new 0 0 135 40;" xml:space="preserve">
<style type="text/css">
	.st0{fill:#A6A6A6;}
	.st1{fill:#FFFFFF;}
</style>
<path class="st0" d="M130.2,40H4.7C2.1,40,0,37.9,0,35.3V4.7C0,2.1,2.1,0,4.7,0h125.5c2.6,0,4.8,2.1,4.8,4.7v30.5
	C135,37.9,132.8,40,130.2,40L130.2,40z"/>
<path d="M134,35.3c0,2.1-1.7,3.8-3.8,3.8H4.7c-2.1,0-3.8-1.7-3.8-3.8V4.7c0-2.1,1.7-3.8,3.8-3.8h125.5c2.1,0,3.8,1.7,3.8,3.8
	L134,35.3L134,35.3z"/>
<g>
	<g>
		<path class="st1" d="M30.1,19.8c0-3.2,2.6-4.8,2.8-4.9c-1.5-2.2-3.9-2.5-4.7-2.5c-2-0.2-3.9,1.2-4.9,1.2c-1,0-2.6-1.2-4.2-1.1
			c-2.1,0-4.1,1.3-5.2,3.2c-2.3,3.9-0.6,9.7,1.6,12.9c1.1,1.6,2.4,3.3,4,3.2c1.6-0.1,2.2-1,4.2-1c1.9,0,2.5,1,4.2,1
			c1.7,0,2.8-1.6,3.9-3.1c1.3-1.8,1.8-3.5,1.8-3.6C33.5,24.9,30.2,23.6,30.1,19.8z"/>
		<path class="st1" d="M26.9,10.3c0.9-1.1,1.5-2.6,1.3-4.1c-1.3,0.1-2.8,0.9-3.8,1.9c-0.8,0.9-1.5,2.5-1.3,3.9
			C24.6,12.2,26,11.4,26.9,10.3z"/>
	</g>
</g>
<g>
	<path class="st1" d="M51.8,31.5h-1.4l-0.2-3.8c-0.1-1.7-0.1-3-0.1-3.8h0c-0.3,1.1-0.6,2.2-1.1,3.5l-1.4,4.1h-1.1l-1.3-4.1
		c-0.4-1.2-0.7-2.4-0.9-3.5h0c0,1.4-0.1,2.7-0.2,3.9l-0.2,3.7h-1.4l0.6-9.1h1.9l1.3,4c0.3,1,0.6,2,0.9,3.1h0
		c0.3-1.2,0.6-2.2,0.9-3.1l1.4-4h1.9L51.8,31.5z"/>
	<path class="st1" d="M58.2,31.5h-1.3l-0.1-0.8h0c-0.5,0.6-1.1,0.9-1.9,0.9c-0.6,0-1.1-0.2-1.5-0.6c-0.3-0.4-0.5-0.8-0.5-1.3
		c0-0.8,0.3-1.4,1-1.8c0.7-0.4,1.6-0.6,2.8-0.6v-0.1c0-0.9-0.5-1.3-1.4-1.3c-0.6,0-1.2,0.2-1.7,0.5l-0.3-1c0.6-0.4,1.4-0.6,2.3-0.6
		c1.7,0,2.6,0.9,2.6,2.7v2.4C58.1,30.6,58.1,31.1,58.2,31.5z M56.7,29.2v-1c-1.6,0-2.4,0.4-2.4,1.3c0,0.3,0.1,0.6,0.3,0.8
		c0.2,0.2,0.4,0.3,0.7,0.3c0.3,0,0.6-0.1,0.9-0.3c0.3-0.2,0.4-0.5,0.5-0.8C56.7,29.4,56.7,29.3,56.7,29.2z"/>
	<path class="st1" d="M64.4,25.1l-0.3,1.1c-0.4-0.2-0.8-0.3-1.3-0.3c-0.6,0-1.1,0.2-1.5,0.6s-0.6,1-0.6,1.6c0,0.7,0.2,1.2,0.6,1.7
		c0.4,0.4,0.9,0.6,1.5,0.6c0.5,0,0.9-0.1,1.3-0.3l0.2,1.1c-0.5,0.2-1.1,0.3-1.8,0.3c-1,0-1.8-0.3-2.4-0.9c-0.6-0.6-0.9-1.4-0.9-2.4
		c0-1,0.3-1.9,1-2.5c0.6-0.7,1.5-1,2.6-1C63.4,24.8,63.9,24.9,64.4,25.1z"/>
	<path class="st1" d="M75.2,31.5h-1.6l-0.9-2.7h-3L69,31.5h-1.5l2.9-9.1h1.8L75.2,31.5z M72.5,27.7l-0.8-2.4
		c-0.1-0.2-0.2-0.8-0.5-1.7h0c-0.1,0.4-0.2,1-0.4,1.7l-0.8,2.4H72.5z"/>
	<path class="st1" d="M82.7,28.1c0,1.1-0.3,2-0.9,2.7c-0.5,0.6-1.2,0.9-2,0.9c-0.9,0-1.5-0.3-1.9-0.9h0v3.5h-1.5v-7.1
		c0-0.7,0-1.4-0.1-2.2h1.3l0.1,1h0c0.5-0.8,1.2-1.2,2.2-1.2c0.8,0,1.4,0.3,1.9,0.9C82.5,26.3,82.7,27.1,82.7,28.1z M81.2,28.2
		c0-0.6-0.1-1.2-0.4-1.6c-0.3-0.4-0.7-0.6-1.3-0.6c-0.4,0-0.7,0.1-1,0.4s-0.5,0.6-0.6,0.9c0,0.2-0.1,0.3-0.1,0.4v1.1
		c0,0.5,0.1,0.9,0.4,1.2c0.3,0.3,0.7,0.5,1.1,0.5c0.6,0,1-0.2,1.3-0.6C81.1,29.4,81.2,28.9,81.2,28.2z"/>
	<path class="st1" d="M90.3,28.1c0,1.1-0.3,2-0.9,2.7c-0.5,0.6-1.2,0.9-2,0.9c-0.9,0-1.5-0.3-1.9-0.9h0v3.5H84v-7.1
		c0-0.7,0-1.4-0.1-2.2h1.3l0.1,1h0c0.5-0.8,1.2-1.2,2.2-1.2c0.8,0,1.4,0.3,1.9,0.9C90,26.3,90.3,27.1,90.3,28.1z M88.8,28.2
		c0-0.6-0.1-1.2-0.4-1.6c-0.3-0.4-0.7-0.6-1.3-0.6c-0.4,0-0.7,0.1-1,0.4c-0.3,0.2-0.5,0.6-0.6,0.9c0,0.2-0.1,0.3-0.1,0.4v1.1
		c0,0.5,0.1,0.9,0.4,1.2c0.3,0.3,0.7,0.5,1.1,0.5c0.5,0,1-0.2,1.3-0.6C88.7,29.4,88.8,28.9,88.8,28.2z"/>
	<path class="st1" d="M98.8,29c0,0.8-0.3,1.4-0.8,1.9c-0.6,0.5-1.4,0.8-2.5,0.8c-1,0-1.8-0.2-2.4-0.6l0.3-1.2
		c0.6,0.4,1.3,0.6,2.1,0.6c0.6,0,1-0.1,1.3-0.4c0.3-0.2,0.5-0.6,0.5-1c0-0.4-0.1-0.7-0.4-0.9c-0.3-0.3-0.7-0.5-1.3-0.7
		c-1.6-0.6-2.4-1.5-2.4-2.6c0-0.8,0.3-1.4,0.8-1.8c0.6-0.5,1.3-0.7,2.2-0.7c0.8,0,1.5,0.1,2.1,0.4L98,23.9c-0.5-0.3-1.1-0.4-1.7-0.4
		c-0.5,0-0.9,0.1-1.2,0.4c-0.2,0.2-0.4,0.5-0.4,0.8c0,0.4,0.1,0.7,0.4,0.9c0.2,0.2,0.7,0.5,1.3,0.7c0.8,0.3,1.4,0.7,1.7,1.1
		C98.6,27.8,98.8,28.3,98.8,29z"/>
	<path class="st1" d="M103.6,26H102v3.2c0,0.8,0.3,1.2,0.9,1.2c0.3,0,0.5,0,0.6-0.1l0,1.1c-0.3,0.1-0.7,0.2-1.1,0.2
		c-0.6,0-1-0.2-1.4-0.5c-0.3-0.4-0.5-0.9-0.5-1.8V26h-1v-1.1h1v-1.2l1.4-0.4v1.6h1.6V26z"/>
	<path class="st1" d="M110.9,28.2c0,1-0.3,1.8-0.9,2.5c-0.6,0.7-1.4,1-2.4,1c-1,0-1.7-0.3-2.3-1c-0.6-0.6-0.9-1.4-0.9-2.4
		c0-1,0.3-1.9,0.9-2.5c0.6-0.7,1.4-1,2.4-1c1,0,1.7,0.3,2.3,1C110.6,26.4,110.9,27.2,110.9,28.2z M109.3,28.2c0-0.6-0.1-1.1-0.4-1.6
		c-0.3-0.5-0.7-0.8-1.3-0.8c-0.6,0-1,0.3-1.3,0.8c-0.3,0.4-0.4,1-0.4,1.6c0,0.6,0.1,1.1,0.4,1.6c0.3,0.5,0.8,0.8,1.3,0.8
		c0.6,0,1-0.3,1.3-0.8C109.2,29.3,109.3,28.8,109.3,28.2z"/>
	<path class="st1" d="M115.6,26.2c-0.1,0-0.3,0-0.5,0c-0.5,0-0.9,0.2-1.2,0.6c-0.2,0.3-0.4,0.8-0.4,1.3v3.5h-1.5l0-4.5
		c0-0.8,0-1.4-0.1-2.1h1.3l0.1,1.3h0c0.2-0.4,0.4-0.8,0.7-1c0.3-0.2,0.7-0.4,1.1-0.4c0.1,0,0.3,0,0.4,0V26.2z"/>
	<path class="st1" d="M122.2,27.9c0,0.3,0,0.5-0.1,0.7h-4.4c0,0.7,0.2,1.1,0.6,1.5c0.4,0.3,0.8,0.5,1.4,0.5c0.6,0,1.2-0.1,1.8-0.3
		l0.2,1c-0.6,0.3-1.4,0.4-2.2,0.4c-1,0-1.8-0.3-2.4-0.9c-0.6-0.6-0.9-1.4-0.9-2.4c0-1,0.3-1.8,0.8-2.5c0.6-0.7,1.3-1.1,2.3-1.1
		c0.9,0,1.7,0.4,2.2,1.1C122,26.4,122.2,27.1,122.2,27.9z M120.8,27.5c0-0.4-0.1-0.8-0.3-1.1c-0.3-0.4-0.6-0.6-1.2-0.6
		c-0.5,0-0.9,0.2-1.2,0.6c-0.2,0.3-0.4,0.7-0.4,1.1H120.8z"/>
</g>
<g>
	<g>
		<path class="st1" d="M43.9,7.2c0.2-0.1,0.5-0.3,0.8-0.3c0.3-0.1,0.6-0.1,1-0.1c0.6,0,1.1,0.1,1.5,0.4s0.5,0.7,0.5,1.2
			c0,0.4-0.1,0.7-0.4,1s-0.6,0.5-0.9,0.5v0c0.2,0,0.4,0.1,0.6,0.2c0.2,0.1,0.3,0.2,0.5,0.3c0.1,0.1,0.2,0.3,0.3,0.5
			c0.1,0.2,0.1,0.4,0.1,0.6c0,0.4-0.1,0.7-0.2,0.9s-0.3,0.4-0.6,0.6c-0.2,0.2-0.5,0.3-0.8,0.3s-0.6,0.1-0.9,0.1
			c-0.3,0-0.6,0-0.9-0.1s-0.6-0.2-0.8-0.3l0.3-0.8c0.2,0.1,0.4,0.2,0.7,0.2c0.3,0.1,0.5,0.1,0.8,0.1c0.4,0,0.8-0.1,1-0.3
			c0.2-0.2,0.4-0.5,0.4-0.8c0-0.2,0-0.4-0.1-0.6c-0.1-0.1-0.2-0.3-0.4-0.3c-0.2-0.1-0.3-0.1-0.5-0.2s-0.4,0-0.6,0h-0.4V9.6h0.4
			c0.2,0,0.4,0,0.6-0.1c0.2-0.1,0.3-0.1,0.4-0.2s0.2-0.2,0.3-0.3c0.1-0.1,0.1-0.3,0.1-0.4c0-0.3-0.1-0.5-0.3-0.7s-0.5-0.2-0.8-0.2
			c-0.2,0-0.5,0-0.7,0.1c-0.2,0.1-0.5,0.2-0.6,0.3L43.9,7.2z"/>
		<path class="st1" d="M52.2,13.3l-0.1-0.5h0c-0.3,0.4-0.8,0.6-1.4,0.6c-0.2,0-0.4,0-0.6-0.1s-0.3-0.2-0.5-0.3
			c-0.1-0.1-0.2-0.3-0.3-0.4c-0.1-0.2-0.1-0.4-0.1-0.6c0-0.6,0.2-1,0.7-1.3c0.5-0.3,1.2-0.4,2-0.4v-0.1c0-0.6-0.3-0.9-1-0.9
			c-0.5,0-0.9,0.1-1.2,0.3l-0.2-0.7c0.4-0.3,1-0.4,1.6-0.4c1.2,0,1.8,0.6,1.8,1.9v1.7c0,0.5,0,0.9,0.1,1.1L52.2,13.3L52.2,13.3z
			 M52,11c-0.6,0-1,0.1-1.3,0.2c-0.3,0.1-0.4,0.4-0.4,0.7c0,0.2,0.1,0.4,0.2,0.6s0.3,0.2,0.5,0.2c0.1,0,0.3,0,0.4-0.1
			c0.1,0,0.2-0.1,0.3-0.2c0.1-0.1,0.2-0.2,0.2-0.3C52,12,52,11.9,52,11.7V11z"/>
		<path class="st1" d="M58.1,8.6v0.9h-2v3.9h-1V8.6H58.1z"/>
		<path class="st1" d="M64.1,10.9c0,0.4-0.1,0.7-0.2,1c-0.1,0.3-0.2,0.6-0.4,0.8c-0.2,0.2-0.4,0.4-0.7,0.5c-0.3,0.1-0.5,0.2-0.8,0.2
			c-0.6,0-1.1-0.2-1.3-0.7h0v2.5h-1v-5.1c0-0.3,0-0.5,0-0.8c0-0.3,0-0.5,0-0.8h0.9l0.1,0.7h0c0.3-0.6,0.9-0.8,1.6-0.8
			c0.3,0,0.5,0.1,0.8,0.2c0.2,0.1,0.4,0.3,0.6,0.5s0.3,0.5,0.4,0.8C64.1,10.2,64.1,10.6,64.1,10.9z M63,11c0-0.2,0-0.4-0.1-0.6
			s-0.1-0.4-0.2-0.5s-0.2-0.2-0.4-0.3S62,9.4,61.8,9.4c-0.1,0-0.3,0-0.4,0.1S61.1,9.6,61,9.7c-0.1,0.1-0.2,0.2-0.3,0.4
			s-0.1,0.3-0.1,0.5v0.8c0,0.2,0,0.3,0.1,0.5c0.1,0.1,0.1,0.3,0.2,0.4s0.2,0.2,0.4,0.3c0.1,0.1,0.3,0.1,0.5,0.1
			c0.4,0,0.7-0.1,0.9-0.5S63,11.5,63,11z"/>
		<path class="st1" d="M69.7,8.6l-1.2,3.3c-0.3,0.8-0.6,1.4-0.8,1.9c-0.3,0.5-0.5,0.9-0.8,1.1c-0.4,0.3-0.7,0.5-1.2,0.6l-0.3-0.9
			c0.3-0.1,0.5-0.2,0.8-0.4c0.2-0.2,0.4-0.5,0.6-0.8c0.1-0.1,0.1-0.2,0.1-0.2c0,0,0-0.1-0.1-0.2l-1.7-4.3h1.2l0.9,2.6
			c0,0.1,0.1,0.3,0.1,0.4c0,0.2,0.1,0.3,0.1,0.5h0c0-0.1,0.1-0.2,0.1-0.4c0-0.2,0.1-0.3,0.2-0.5l0.8-2.6L69.7,8.6L69.7,8.6z"/>
		<path class="st1" d="M71.5,10.6H72c0.4,0,0.6-0.1,0.8-0.2c0.2-0.1,0.3-0.3,0.3-0.5c0-0.2-0.1-0.3-0.2-0.5
			c-0.2-0.1-0.4-0.2-0.7-0.2c-0.2,0-0.4,0-0.6,0.1c-0.2,0.1-0.4,0.1-0.5,0.2l-0.3-0.7c0.3-0.1,0.5-0.3,0.8-0.3
			c0.3-0.1,0.5-0.1,0.8-0.1c0.2,0,0.4,0,0.6,0.1c0.2,0,0.4,0.1,0.6,0.2C73.9,8.9,74,9,74.1,9.2s0.2,0.4,0.2,0.6c0,0.1,0,0.3-0.1,0.4
			c-0.1,0.1-0.1,0.2-0.2,0.3c-0.1,0.1-0.2,0.2-0.3,0.2c-0.1,0.1-0.2,0.1-0.4,0.1v0c0.2,0,0.3,0.1,0.5,0.1c0.1,0.1,0.3,0.1,0.4,0.2
			c0.1,0.1,0.2,0.2,0.3,0.3c0.1,0.1,0.1,0.3,0.1,0.5c0,0.3-0.1,0.5-0.2,0.7S74,13,73.8,13.1c-0.2,0.1-0.4,0.2-0.7,0.2
			c-0.3,0-0.5,0.1-0.7,0.1c-0.3,0-0.6,0-0.9-0.1s-0.5-0.2-0.8-0.3l0.3-0.7c0.2,0.1,0.4,0.2,0.6,0.2c0.2,0.1,0.4,0.1,0.7,0.1
			c0.4,0,0.6-0.1,0.8-0.2s0.3-0.3,0.3-0.5c0-0.1,0-0.3-0.1-0.3s-0.2-0.2-0.3-0.2c-0.1-0.1-0.3-0.1-0.4-0.1c-0.2,0-0.3,0-0.5,0h-0.5
			L71.5,10.6L71.5,10.6z"/>
		<path class="st1" d="M77.1,8.6v1.7c0,0.4,0,0.7,0,1c0,0.3,0,0.6,0,1l0,0c0.1-0.2,0.2-0.5,0.4-0.7c0.1-0.2,0.2-0.5,0.4-0.7L79,8.6
			h1.4v4.7h-1v-1.7c0-0.3,0-0.7,0-1c0-0.4,0-0.7,0.1-1.1h0c-0.1,0.3-0.2,0.5-0.3,0.8c-0.1,0.2-0.2,0.4-0.3,0.7
			c-0.2,0.4-0.4,0.8-0.6,1.2c-0.2,0.4-0.4,0.8-0.6,1.2h-1.4V8.6H77.1z"/>
		<path class="st1" d="M85.9,8.6v0.9h-1.4v3.9h-1V9.5H82V8.6H85.9z"/>
		<path class="st1" d="M91.2,10.8c0,0.1,0,0.2,0,0.3s0,0.2,0,0.2H88c0,0.4,0.2,0.8,0.4,1c0.3,0.2,0.6,0.4,1.1,0.4
			c0.5,0,0.9-0.1,1.3-0.2l0.2,0.7c-0.4,0.2-1,0.3-1.6,0.3c-0.4,0-0.7-0.1-1-0.2s-0.5-0.3-0.7-0.5c-0.2-0.2-0.4-0.5-0.5-0.7
			c-0.1-0.3-0.2-0.6-0.2-1s0.1-0.7,0.2-1c0.1-0.3,0.3-0.6,0.5-0.8c0.2-0.2,0.4-0.4,0.7-0.5c0.3-0.1,0.6-0.2,0.9-0.2
			c0.3,0,0.6,0.1,0.8,0.2c0.2,0.1,0.4,0.3,0.6,0.5c0.2,0.2,0.3,0.4,0.4,0.7C91.2,10.1,91.2,10.4,91.2,10.8z M90.2,10.5
			c0-0.4-0.1-0.7-0.3-0.9c-0.2-0.2-0.4-0.3-0.8-0.3c-0.3,0-0.6,0.1-0.8,0.3c-0.2,0.2-0.3,0.5-0.4,0.9H90.2z"/>
		<path class="st1" d="M95.4,8.7c0.2,0,0.4-0.1,0.7-0.1s0.6,0,0.9,0c0.2,0,0.4,0,0.7,0c0.2,0,0.5,0.1,0.7,0.2
			c0.2,0.1,0.4,0.2,0.6,0.4s0.2,0.4,0.2,0.7c0,0.1,0,0.3-0.1,0.4c-0.1,0.1-0.1,0.2-0.2,0.3s-0.2,0.2-0.3,0.2
			c-0.1,0.1-0.2,0.1-0.4,0.1l0,0c0.3,0.1,0.6,0.2,0.8,0.4s0.3,0.4,0.3,0.8s-0.1,0.6-0.3,0.8c-0.2,0.2-0.4,0.3-0.7,0.4
			c-0.3,0.1-0.5,0.2-0.8,0.2c-0.3,0-0.6,0-0.8,0c-0.3,0-0.5,0-0.8,0c-0.3,0-0.5,0-0.6,0V8.7z M96.4,10.5H97c0.2,0,0.3,0,0.5,0
			c0.1,0,0.3-0.1,0.4-0.1c0.1,0,0.2-0.1,0.3-0.2c0.1-0.1,0.1-0.2,0.1-0.3c0-0.2-0.1-0.4-0.3-0.5c-0.2-0.1-0.5-0.1-0.8-0.1
			c-0.1,0-0.2,0-0.3,0c-0.1,0-0.2,0-0.3,0V10.5z M96.4,12.6c0.1,0,0.2,0,0.3,0c0.1,0,0.2,0,0.3,0c0.1,0,0.3,0,0.4,0
			c0.1,0,0.3-0.1,0.4-0.1c0.1-0.1,0.2-0.1,0.3-0.2c0.1-0.1,0.1-0.2,0.1-0.4c0-0.3-0.1-0.5-0.4-0.6c-0.2-0.1-0.6-0.2-1-0.2h-0.6
			L96.4,12.6L96.4,12.6z"/>
	</g>
</g>
</svg>
