<?xml version="1.0" encoding="utf-8"?>
<!-- Generator: Adobe Illustrator 19.0.1, SVG Export Plug-In . SVG Version: 6.00 Build 0)  -->
<svg version="1.1"
	 id="svg16893" xmlns:svg="http://www.w3.org/2000/svg" xmlns:cc="http://creativecommons.org/ns#" xmlns:dc="http://purl.org/dc/elements/1.1/" xmlns:rdf="http://www.w3.org/1999/02/22-rdf-syntax-ns#"
	 xmlns="http://www.w3.org/2000/svg" xmlns:xlink="http://www.w3.org/1999/xlink" x="0px" y="0px" viewBox="-240 376.3 130 41.2"
	 style="enable-background:new -240 376.3 130 41.2;" width="120" xml:space="preserve">
<style type="text/css">
	.st0{fill:#939CA1;}
</style>
<g id="g15910" transform="translate(500.6749,698.2117)">
	<path id="path15912" class="st0" d="M-717.5-317.3c-0.3,0.4-0.5,0.8-0.5,1.5v20.4h-0.1c0,0-11.2-20-11.8-20.9
		c-0.4-0.7-0.8-1.1-1.4-1.4c-0.5-0.3-1.1-0.5-2.3-0.5h-3.7c-0.8,0-1.4,0.3-1.7,0.8c-0.3,0.4-0.5,0.8-0.5,1.5v29
		c0,0.8,0.2,1.1,0.5,1.5c0.4,0.5,0.9,0.8,1.7,0.8h2.1c0.8,0,1.4-0.3,1.7-0.8c0.3-0.4,0.5-0.8,0.5-1.5v-20.9h0.1
		c0,0,11.6,20.6,12.1,21.3c0.7,1.1,1.7,1.9,3.3,1.9h3.6c0.8,0,1.4-0.3,1.7-0.8c0.3-0.4,0.5-0.8,0.5-1.5V-313h47
		c0.5,0,0.8-0.2,1.1-0.4c0.3-0.3,0.5-0.6,0.5-1.1v-2c0-0.5-0.2-0.9-0.5-1.1s-0.6-0.4-1.1-0.4h-51.3
		C-716.6-318-717.1-317.7-717.5-317.3 M-696.9-309.5c-7.8,0-12.2,6.1-12.2,12.5c0,6.8,4.7,12.9,12.2,12.9c3.8,0,7.4-1.4,9.6-3.9
		c0.9-1.1,1.7-2.6,1.7-3.5c0-0.3-0.1-0.6-0.2-0.8c-0.2-0.2-0.5-0.4-0.9-0.4h-3.6c-0.8,0-1.2,0.3-1.6,0.8c-1.1,1.5-2.6,2.4-4.9,2.4
		c-3.4,0-5.5-2.6-5.7-5.4h15.7c0.7,0,1.2-0.2,1.5-0.5c0.4-0.4,0.5-0.9,0.5-1.8c0-3-0.9-6-2.9-8.3
		C-689.6-308-692.7-309.5-696.9-309.5 M-672.8-309.5c-6.1,0-10.2,3-10.2,7.6c0,1.7,0.6,3,1.6,4.1c1.1,1.2,2.8,2.1,5.2,2.7l5.2,1.3
		c1.4,0.4,2.7,0.8,2.7,2c0,1.9-2,2.6-4.2,2.6c-1.1,0-2.1-0.2-3-0.7c-0.6-0.3-1.1-0.8-1.5-1.4c-0.3-0.5-0.5-0.9-1-1.2
		c-0.3-0.2-0.7-0.2-1.2-0.2h-2.8c-0.6,0-0.9,0.2-1.1,0.5c-0.2,0.3-0.3,0.6-0.3,1c0,0.9,0.3,2,1.1,3c1.7,2.3,5.3,4.2,9.9,4.2
		c4.5,0,10.8-1.9,10.8-7.9c0-1.5-0.5-2.9-1.3-3.9c-1.1-1.4-2.6-2.4-5.2-3l-5.1-1.3c-2.1-0.5-3.1-0.9-3.1-2.2s1.1-2.3,3.7-2.3
		c1.5,0,3,0.3,3.8,1.3c0.8,0.8,0.6,1.2,1.2,1.5c0.4,0.2,0.8,0.2,1.4,0.2h2.6c0.4,0,0.7-0.1,0.9-0.3c0.2-0.2,0.3-0.5,0.3-1.1
		c0-1.1-0.8-2.7-2.1-3.8C-666.5-308.5-669.4-309.5-672.8-309.5 M-658.8-308.6h-1.3c-0.5,0-0.8,0.2-1.1,0.4c-0.3,0.3-0.5,0.6-0.5,1.1
		v1.5c0,0.5,0.2,0.9,0.5,1.1c0.3,0.2,0.6,0.4,1.1,0.4h1.3v11.2c0,2.9,0.8,4.7,2.3,6.1c1.4,1.3,3.1,2.1,6.1,2.1h1.9
		c0.5,0,0.8-0.2,1.1-0.4c0.3-0.3,0.5-0.6,0.5-1.1v-2c0-0.5-0.2-0.9-0.5-1.1s-0.6-0.4-1.1-0.4h-0.3c-1.2,0-2-0.3-2.6-0.8
		c-0.7-0.6-1-1.6-1-2.9V-304h4.1c0.5,0,0.8-0.2,1.1-0.4c0.3-0.3,0.5-0.6,0.5-1.1v-1.5c0-0.5-0.2-0.9-0.5-1.1s-0.6-0.4-1.1-0.4h-4.1
		v-7.4c0-0.6-0.2-1-0.5-1.4s-0.8-0.7-1.5-0.7h-2.6c-0.7,0-1.1,0.2-1.5,0.7c-0.3,0.3-0.5,0.8-0.5,1.4L-658.8-308.6L-658.8-308.6z
		 M-644.9-286.6c0,0.6,0.2,1,0.5,1.4s0.8,0.7,1.5,0.7h2.7c0.7,0,1.1-0.2,1.5-0.7c0.3-0.3,0.5-0.8,0.5-1.4V-316c0-0.6-0.2-1-0.5-1.4
		c-0.3-0.4-0.8-0.7-1.5-0.7h-2.7c-0.7,0-1.1,0.2-1.5,0.7c-0.3,0.3-0.5,0.8-0.5,1.4V-286.6z M-702.5-299.7c0.3-2.8,2.4-4.9,5.6-4.9
		c3.2,0,5.3,2,5.6,4.9H-702.5z M-614-313c0.5,0,0.8-0.2,1.1-0.4c0.3-0.3,0.5-0.6,0.5-1.1v-2.1c0-0.8-0.2-1.2-0.5-1.5
		c-0.2-0.3-0.7-0.5-1.1-0.5c-0.4,0-0.7,0.1-1.3,0.1l-18,1.7c-0.5,0.1-0.8,0.2-0.9,0.4c-0.2,0.2-0.3,0.5-0.3,0.9v1.1
		c0,0.5,0.1,0.7,0.2,0.8c0.2,0.2,0.5,0.3,0.9,0.3h19.3V-313z M-623.9-309.5c-7.8,0-12.2,6.1-12.2,12.5c0,6.8,4.7,12.9,12.2,12.9
		c3.8,0,7.4-1.4,9.6-3.9c0.9-1.1,1.7-2.6,1.7-3.5c0-0.3-0.1-0.6-0.2-0.8c-0.2-0.2-0.5-0.4-0.9-0.4h-3.6c-0.8,0-1.2,0.3-1.6,0.8
		c-1.1,1.5-2.6,2.4-4.9,2.4c-3.4,0-5.5-2.6-5.7-5.4h15.7c0.7,0,1.2-0.2,1.5-0.5c0.4-0.4,0.5-0.9,0.5-1.8c0-3-0.9-6-2.9-8.3
		C-616.6-308-619.7-309.5-623.9-309.5 M-629.5-299.7c0.3-2.8,2.4-4.9,5.6-4.9c3.2,0,5.3,2,5.6,4.9H-629.5z"/>
</g>
</svg>
