<svg width="140" height="44" xmlns="http://www.w3.org/2000/svg">
 <defs>
  <path d="m0,0l15.027,0l0,24l-15.027,0l0,-24z" id="a"/>
  <path d="m0,0.016l27,0l0,32.984l-27,0l0,-32.984z" id="c"/>
  <path d="m0,0l27,0l0,33.797l-27,0l0,-33.797z" id="e"/>
 </defs>
 <g>
  <title>background</title>
  <rect fill="none" id="canvas_background" height="46" width="142" y="-1" x="-1"/>
 </g>
 <g>
  <title>Layer 1</title>
  <!-- Generator: Sketch 50.2 (55047) - http://www.bohemiancoding.com/sketch -->
  <desc>Created with Sketch.</desc>

  <metadata id="svg_79">image/svg+xml</metadata>
  <defs>
   <style type="text/css"/>
  </defs>
  <!-- Generator: Sketch 46.2 (44496) - http://www.bohemiancoding.com/sketch -->
  <desc>Created with Sketch.</desc>

  <g id="svg_103">
   <g transform="matrix(1.79339, 0, 0, 1.79339, -7.13398, -2.93399)" fill-rule="evenodd" fill="none" id="svg_93">
    <g id="svg_94">
     <g id="svg_95">
      <g id="svg_99">
       <polygon points="13.152911186218262,5.903242647647858 13.152911186218262,20.83657604455948 28.086244583129883,5.903242647647858 " fill="#92CFAE" id="svg_101"/>
       <polygon points="14.219578742980957,21.90324169397354 29.152910232543945,21.90324169397354 29.152910232543945,6.96990829706192 " fill="#2A8288" id="svg_100"/>
      </g>
      <path fill="#000000" id="svg_98" d="m37.54116,13.55641c1.73632,0 2.65937,-0.8503 2.65937,-2.439l0,-0.08977c0,-1.70059 -0.96711,-2.37187 -2.65937,-2.37187l-1.80228,0l0,4.90064l1.80228,0zm-5.34063,-7.65317l5.42851,0c3.82412,0 6.00006,1.72297 6.00006,5.10228l0,0.08925c0,3.37906 -2.30762,4.99041 -5.89029,4.99041l-1.99993,0l0,5.81806l-3.53835,0l0,-16z"/>
      <path fill="#000000" id="svg_97" d="m50.67315,19.15071c1.70355,0 2.5662,-0.76079 2.5662,-2.2155l0,-0.08924c0,-1.43234 -0.86265,-2.2155 -2.65241,-2.2155l-1.98394,0l0,4.52024l2.07015,0zm0.12945,2.75253l-5.64969,0l0,-16l10.04864,0l0,2.81966l-6.57681,0l-0.02174,3.35642l2.3073,0c3.55805,0 5.67118,1.58897 5.67118,4.78876l0,0.08977c0,3.13266 -1.9622,4.94539 -5.77888,4.94539l0,0z"/>
      <polygon points="59.15290832519531,5.925589144229889 62.868186950683594,5.925589144229889 62.868186950683594,12.808339655399323 68.60150146484375,5.903242647647858 72.546142578125,5.903242647647858 66.05589294433594,13.478688776493073 72.86719512939453,21.90324169397354 68.53266143798828,21.90324169397354 62.868186950683594,14.730004847049713 62.868186950683594,21.90324169397354 59.15290832519531,21.90324169397354 " fill="#000000" id="svg_96"/>
     </g>
    </g>
   </g>
  </g>
 </g>
</svg>