<svg xmlns="http://www.w3.org/2000/svg" viewBox="0 0 1007.897 371.442"><defs><style>.cls-1{fill:none;}.cls-2{fill:#f15d31;}.cls-3{opacity:0.81;}.cls-4{fill:#55499e;}.cls-5{fill:#221e1f;}</style></defs><title>Ростелеком</title><g id="Слой_2" data-name="Слой 2"><g id="Layer_1" data-name="Layer 1"><path class="cls-1" d="M77.886,276.031l-.05.05c-17.6,17.491-29.228,29.045-37.8,37.588-7.611,7.588-12.808,12.8-17.627,17.688-6.069,6.054-10.113,10.087-10.13,10.106l-.016.015v0A18.2,18.2,0,0,0,7.491,353.8a17.075,17.075,0,0,0,10.83,15.878h0l.01,0c.222.091.442.189.669.272a6.252,6.252,0,0,0,.729.2,28.153,28.153,0,0,0,8.227,1.289H173.042L77.886,276.031Z"/><path class="cls-2" d="M18.321,369.676h0l.01,0c.222.091.442.189.669.272a6.252,6.252,0,0,0,.729.2,28.153,28.153,0,0,0,8.227,1.289H173.043L77.886,276.031h0l-.05.05c-17.6,17.491-29.228,29.045-37.8,37.588-7.611,7.588-12.808,12.8-17.627,17.688-6.069,6.054-10.113,10.087-10.13,10.106l-.016.015v0A18.2,18.2,0,0,0,7.491,353.8,17.075,17.075,0,0,0,18.321,369.676Z"/><path class="cls-4" d="M7.491,353.8a18.2,18.2,0,0,1,4.775-12.317v0l.016-.015c.017-.019,4.061-4.052,10.13-10.106,4.819-4.887,10.016-10.1,17.627-17.688,8.569-8.543,20.2-20.1,37.8-37.588l.05-.05h0c5.177-5.145,10.866-10.8,17.148-17.046l.342-.34c28.487-28.322,69.043-68.669,128.5-127.916L93.222,0,19.253,74.059C-2.856,96.168.136,110.636.136,140.334V343.522a27.884,27.884,0,0,0,18.185,26.155h0A17.075,17.075,0,0,1,7.491,353.8Z"/><polygon class="cls-5" points="833.592 237.595 811.826 237.595 785.824 263.89 785.824 237.595 767.417 237.595 767.417 310.051 785.824 310.051 785.824 280.104 812.264 310.051 834.468 310.051 800.285 271.194 833.592 237.595"/><path class="cls-5" d="M250.087,207.8H203.634V310.051h19.282V274.408h27.171c23.081,0,38.273-11.833,38.273-33.308S273.168,207.8,250.087,207.8ZM249.5,257.17H222.916V225.032H249.5c13.439,0,19.575,6.428,19.575,16.068S262.942,257.17,249.5,257.17Z"/><path class="cls-5" d="M331.885,235.55c-19.866,0-39.588,12.856-39.588,38.273S312.019,312.1,331.885,312.1s39.589-12.854,39.589-38.273S351.753,235.55,331.885,235.55Zm0,59.309c-10.809,0-20.889-7.742-20.889-21.036s10.08-21.035,20.889-21.035,20.89,7.742,20.89,21.035S342.7,294.859,331.885,294.859Z"/><path class="cls-5" d="M418.466,294.859c-11.1,0-19.283-8.035-19.283-21.036,0-12.855,8.473-21.035,19.283-21.035,6.573,0,12.271,3.067,16.8,9.933l15.776-9.058c-5.258-11.248-16.653-18.113-32.429-18.113-20.6,0-38.127,15.192-38.127,38.273S397.138,312.1,418.612,312.1c15.484,0,25.856-7.011,33.16-19.428l-15.192-8.326C432.2,290.477,427.523,294.859,418.466,294.859Z"/><path class="cls-5" d="M614.445,278.645c-.876,11.1-3.07,13.585-6.868,13.585a18.5,18.5,0,0,1-5.591-.753l.092,18.751a24.531,24.531,0,0,0,6.524.7c15.631,0,21.474-10.08,22.935-31.553L633.29,254.1h20.743v55.8h18.406V237.6H617.513Z"/><path class="cls-5" d="M562.237,235.55c-21.035,0-38.127,15.338-38.127,38.273S541.2,312.1,561.361,312.1c15.923,0,26-5.989,33.306-18.406l-14.608-7.3c-4.529,5.7-8.619,9.933-18.406,9.933-10.81,0-18.7-7.011-19.867-18.113h55.8v-6.428C597.588,250.6,582.98,235.55,562.237,235.55Zm-20.159,28.632c2.629-8.181,9.934-14.608,19.575-14.608,10.225,0,17.092,5.551,18.844,14.608Z"/><path class="cls-5" d="M720.87,235.55c-21.036,0-38.127,15.338-38.127,38.273s17.091,38.273,37.25,38.273c15.923,0,26-5.989,33.307-18.406l-14.608-7.3c-4.528,5.7-8.619,9.933-18.406,9.933-10.81,0-18.7-7.011-19.867-18.113h55.8v-6.428C756.222,250.6,741.613,235.55,720.87,235.55Zm-20.159,28.632c2.629-8.181,9.933-14.608,19.575-14.608,10.225,0,17.091,5.551,18.844,14.608Z"/><polygon class="cls-5" points="457.498 253.663 479.117 253.663 479.117 310.051 497.523 310.051 497.523 253.663 519.145 253.663 519.145 237.595 457.498 237.595 457.498 253.663"/><path class="cls-5" d="M871.011,235.55c-19.866,0-39.587,12.856-39.587,38.273S851.145,312.1,871.011,312.1,910.6,299.242,910.6,273.823,890.878,235.55,871.011,235.55Zm0,59.309c-10.809,0-20.889-7.742-20.889-21.036s10.08-21.035,20.889-21.035,20.89,7.743,20.89,21.035S881.821,294.859,871.011,294.859Z"/><polygon class="cls-5" points="983.837 237.581 963.861 288.325 943.884 237.581 919.826 237.581 919.826 309.906 937.323 309.906 937.323 264.12 956.716 309.906 971.006 309.906 990.399 264.12 990.399 309.906 1007.897 309.906 1007.897 237.581 983.837 237.581"/></g></g></svg>