<svg width="140" height="44" xmlns="http://www.w3.org/2000/svg">
 <defs>
  <path d="m0,0l15.027,0l0,24l-15.027,0l0,-24z" id="a"/>
  <path d="m0,0.016l27,0l0,32.984l-27,0l0,-32.984z" id="c"/>
  <path d="m0,0l27,0l0,33.797l-27,0l0,-33.797z" id="e"/>
 </defs>
 <g>
  <title>background</title>
  <rect fill="none" id="canvas_background" height="46" width="142" y="-1" x="-1"/>
 </g>
 <g>
  <title>Layer 1</title>
  <!-- Generator: Sketch 50.2 (55047) - http://www.bohemiancoding.com/sketch -->
  <desc>Created with Sketch.</desc>

  <metadata id="svg_79">image/svg+xml</metadata>
  <defs>
   <style type="text/css"/>
  </defs>
  <!-- Generator: Sketch 46.2 (44496) - http://www.bohemiancoding.com/sketch -->
  <desc>Created with Sketch.</desc>

  <defs>
   <path id="svg_125" d="m0,0l15.027,0l0,24l-15.027,0l0,-24z"/>
   <path id="svg_124" d="m0,0.016l27,0l0,32.984l-27,0l0,-32.984z"/>
   <path id="svg_123" d="m0,0l27,0l0,33.797l-27,0l0,-33.797z"/>
  </defs>
  <defs>
   <style>.cls-1{fill:#171717;}.cls-2{fill:#df0029;}.cls-3{fill:#fdfcfc;}</style>
  </defs>
  <g id="svg_151">
   <g transform="matrix(0.181945, 0, 0, 0.181945, -5.9309, -6.06421)" id="svg_139">
    <g id="svg_140">
     <rect x="80.20448" y="82.09581" id="svg_142" height="144.3" width="674.25" class="cls-1"/>
     <polygon id="svg_143" points="137.5244903564453,109.94581270217896 109.52449035644531,109.94581270217896 109.52449035644531,123.98580598831177 137.5244903564453,123.98580598831177 137.5244903564453,198.23580598831177 154.4344940185547,198.23580598831177 154.4344940185547,123.98580598831177 182.4344940185547,123.98580598831177 182.4344940185547,109.94581270217896 154.4344940185547,109.94581270217896 137.5244903564453,109.94581270217896 " class="cls-2"/>
     <polygon id="svg_144" points="587.9445190429688,159.48580598831177 630.8145141601562,159.48580598831177 630.8145141601562,145.44581270217896 587.9445190429688,145.44581270217896 587.9445190429688,123.98580598831177 634.5645141601562,123.98580598831177 634.5645141601562,109.94581270217896 587.9445190429688,109.94581270217896 571.0245361328125,109.94581270217896 571.0245361328125,123.98580598831177 571.0245361328125,145.44581270217896 571.0245361328125,159.48580598831177 571.0245361328125,184.19581270217896 571.0245361328125,198.23580598831177 587.9445190429688,198.23580598831177 636.0645141601562,198.23580598831177 636.0645141601562,184.19581270217896 587.9445190429688,184.19581270217896 587.9445190429688,159.48580598831177 " class="cls-3"/>
     <rect id="svg_145" height="88.29" width="16.92" y="109.94581" x="450.35448" class="cls-3"/>
     <path id="svg_146" d="m317.69448,109.94581l-39.67,0l0,88.29l39.67,0a32.12,32.12 0 0 0 32.12,-32.14l0,-24a32.12,32.12 0 0 0 -32.12,-32.15zm15.4,56.15a15.42,15.42 0 0 1 -15.4,15.41l-22.76,0l0,-54.84l22.76,0a15.42,15.42 0 0 1 15.4,15.43l0,24z" class="cls-3"/>
     <path id="svg_147" d="m230.35448,109.94581l-16.92,0l-30,88.29l16.92,0l6.37,-18.75l34,0l6.37,18.75l16.92,0l-30,-88.29l-3.66,0zm-18.86,55.5l12.24,-36l12.23,36l-24.47,0z" class="cls-3"/>
     <polygon id="svg_148" points="398.4845275878906,174.32581758499146 376.6045227050781,109.94581270217896 359.6944885253906,109.94581270217896 389.6944885253906,198.23580598831177 390.3545227050781,198.23580598831177 406.6045227050781,198.23580598831177 407.2745056152344,198.23580598831177 437.2745056152344,109.94581270217896 420.3545227050781,109.94581270217896 398.4845275878906,174.32581758499146 " class="cls-3"/>
     <path id="svg_149" d="m524.78448,144.15581c-13.2,-3.8 -17.88,-5.76 -17.88,-12.64c0,-6.41 4.12,-10.25 12.47,-10.25c9.91,0 13.26,5.17 14.41,12l18.65,0c-1.07,-14.85 -10.53,-26.37 -32.89,-26.37c-17.75,0 -31.57,9.34 -31.57,26.46c0,13.34 7.37,21 29,26.94c13.46,3.79 18.58,7.24 18.58,15.62c0,6.53 -3.7,11.1 -14.31,11.1c-9.93,0 -15.45,-5.47 -16.79,-13.85l-18.81,0c1.14,18.28 14.35,28.43 34.68,28.43c24.4,0 34.49,-12.84 34.49,-27.9c0,-13.24 -6.25,-22.66 -30.03,-29.54z" class="cls-3"/>
     <path id="svg_150" d="m723.54448,193.21581a46.52,46.52 0 0 1 -0.32,-5.79l0,-13.73a26.29,26.29 0 0 0 -2.46,-11.89a12.71,12.71 0 0 0 -4.95,-5.17a24.83,24.83 0 0 0 9,-19.15l0,-2.67a24.87,24.87 0 0 0 -24.88,-24.87l-43.91,0l0,88.29l16.91,0l0,-35.88l25.69,0a8.77,8.77 0 0 1 4.41,2.19c3.79,3.49 2.76,8.55 2.71,8.77l0,14c0,1.78 0,3.27 0.08,4.45a18.38,18.38 0 0 0 0.32,2.93a10.33,10.33 0 0 0 0.55,1.91c0.21,0.5 0.42,1.06 0.64,1.65l17.8,0a15.63,15.63 0 0 1 -1.59,-5.04zm-50.61,-47.57l0,-19l27,0a8.16,8.16 0 0 1 8.16,8.15l0,2.67a8.17,8.17 0 0 1 -8.16,8.16l-27,0.02z" class="cls-3"/>
    </g>
   </g>
  </g>
 </g>
</svg>