<?xml version="1.0" encoding="utf-8"?>
<!-- Generator: Adobe Illustrator 21.0.2, SVG Export Plug-In . SVG Version: 6.00 Build 0)  -->
<svg version="1.1" id="Слой_1" xmlns="http://www.w3.org/2000/svg" xmlns:xlink="http://www.w3.org/1999/xlink" x="0px" y="0px"
	 viewBox="0 0 200 200" style="enable-background:new 0 0 200 200;" xml:space="preserve">
<style type="text/css">
	.st0{fill:#1DA1F2;}
	.st1{fill:#FFFFFF;}
</style>
<rect class="st0" width="200" height="200"/>
<path class="st1" d="M152.9,74c0,1.1,0.1,2.3,0.1,3.4c0,34.5-26.3,74.3-74.3,74.3c-14.8,0-28.5-4.3-40-11.7c2,0.2,4.1,0.4,6.2,0.4
	c12.2,0,23.5-4.2,32.4-11.2c-11.4-0.2-21.1-7.8-24.4-18.2c1.6,0.3,3.2,0.5,4.9,0.5c2.4,0,4.7-0.3,6.9-0.9c-12-2.4-20.9-13-20.9-25.6
	c0-0.1,0-0.2,0-0.3c3.5,2,7.5,3.1,11.8,3.3c-7-4.7-11.6-12.7-11.6-21.7c0-4.8,1.3-9.3,3.5-13.1c12.9,15.8,32.1,26.2,53.8,27.3
	c-0.5-1.9-0.7-3.9-0.7-5.9c0-14.4,11.7-26.1,26.1-26.1c7.5,0,14.3,3.2,19.1,8.3c5.9-1.2,11.5-3.3,16.6-6.3
	c-1.9,6.1-6.1,11.2-11.5,14.4c5.3-0.6,10.3-2,15-4.1C162.4,65.8,158,70.3,152.9,74L152.9,74z"/>
</svg>
