<?xml version="1.0" encoding="utf-8"?>
<!-- Generator: Adobe Illustrator 21.0.2, SVG Export Plug-In . SVG Version: 6.00 Build 0)  -->
<svg version="1.1" id="Слой_1" xmlns="http://www.w3.org/2000/svg" xmlns:xlink="http://www.w3.org/1999/xlink" x="0px" y="0px"
	 viewBox="0 0 200 200" style="enable-background:new 0 0 200 200;" xml:space="preserve">
<style type="text/css">
	.st0{fill:#4D75A3;}
	.st1{fill:#FFFFFF;}
</style>
<rect y="0" class="st0" width="200" height="200"/>
<path class="st1" d="M142.2,99.3c0,0,16.8-23.7,18.5-31.5c0.6-2.8-0.7-4.3-3.6-4.3c0,0-9.7,0-14.6,0c-3.3,0-4.6,1.4-5.6,3.6
	c0,0-7.9,16.8-17.5,27.4c-3.1,3.4-4.7,4.5-6.4,4.5c-1.4,0-2-1.1-2-4.2V67.5c0-3.8-0.4-4.9-3.6-4.9H84.2c-1.8,0-2.9,1-2.9,2.5
	c0,3.6,5.5,4.4,5.5,14v20c0,4-0.2,5.6-2.1,5.6c-5,0-16.9-17.3-23.6-36.9c-1.3-4-2.8-5.1-6.6-5.1H39.8c-2.1,0-3.7,1.4-3.7,3.6
	c0,3.9,4.6,22,22.5,46.1c12,16.3,27.9,25.1,42.1,25.1c8.7,0,10.8-1.4,10.8-5.1v-12.5c0-3.1,1.2-4.5,3-4.5c2,0,5.5,0.6,13.8,8.8
	c9.8,9.4,10.5,13.3,15.8,13.3h16.4c1.7,0,3.2-0.8,3.2-3.6c0-3.7-4.8-10.3-12.1-18.1c-3-4-7.9-8.4-9.5-10.4
	C140,103.1,140.7,101.7,142.2,99.3z"/>
</svg>
