<?xml version="1.0" encoding="utf-8"?>
<!-- Generator: Adobe Illustrator 21.0.2, SVG Export Plug-In . SVG Version: 6.00 Build 0)  -->
<svg version="1.1" id="Слой_1" xmlns="http://www.w3.org/2000/svg" xmlns:xlink="http://www.w3.org/1999/xlink" x="0px" y="0px"
	 viewBox="0 0 200 200" style="enable-background:new 0 0 200 200;" xml:space="preserve">
<style type="text/css">
	.st0{fill:#D42322;}
	.st1{fill:#FFFFFF;}
</style>
<rect y="0" class="st0" width="200" height="200"/>
<path class="st1" d="M160.1,75.6c0,0-1.2-8.4-4.9-12.1c-4.7-4.9-9.9-4.9-12.3-5.2C125.8,57,100,57,100,57H100c0,0-25.8,0-42.9,1.2
	c-2.4,0.3-7.6,0.3-12.3,5.2c-3.7,3.7-4.9,12.1-4.9,12.1s-1.2,9.9-1.2,19.8v9.3c0,9.9,1.2,19.8,1.2,19.8s1.2,8.4,4.9,12.1
	c4.7,4.9,10.8,4.7,13.5,5.2c9.8,0.9,41.7,1.2,41.7,1.2s25.8,0,43-1.3c2.4-0.3,7.6-0.3,12.3-5.2c3.7-3.7,4.9-12.1,4.9-12.1
	s1.2-9.9,1.2-19.8v-9.3C161.4,85.5,160.1,75.6,160.1,75.6z M87.2,115.7v-34l32.6,17L87.2,115.7z"/>
</svg>
